<?xml version="1.0" encoding="UTF-8" standalone="no"?>
<!-- Created with Inkscape (http://www.inkscape.org/) -->

<svg
   version="1.1"
   id="svg1"
   width="5332.3467"
   height="5332.3467"
   viewBox="0 0 5332.3467 5332.3467"
   sodipodi:docname="1de24a3a-6bff-46d4-858d-5b02d44ef661.eps"
   xmlns:inkscape="http://www.inkscape.org/namespaces/inkscape"
   xmlns:sodipodi="http://sodipodi.sourceforge.net/DTD/sodipodi-0.dtd"
   xmlns="http://www.w3.org/2000/svg"
   xmlns:svg="http://www.w3.org/2000/svg">
  <defs
     id="defs1" />
  <sodipodi:namedview
     id="namedview1"
     pagecolor="#ffffff"
     bordercolor="#000000"
     borderopacity="0.25"
     inkscape:showpageshadow="2"
     inkscape:pageopacity="0.0"
     inkscape:pagecheckerboard="0"
     inkscape:deskcolor="#d1d1d1">
    <inkscape:page
       x="0"
       y="0"
       inkscape:label="1"
       id="page1"
       width="5332.3467"
       height="5332.3467"
       margin="0"
       bleed="0" />
  </sodipodi:namedview>
  <g
     id="g1"
     inkscape:groupmode="layer"
     inkscape:label="1">
    <g
       id="group-R5">
      <path
         id="path2"
         d="M 0,0 H 39992.6 V 39992.6 H 0 Z"
         style="fill:transparent;fill-opacity:1;fill-rule:nonzero;stroke:none"
         transform="matrix(0.13333333,0,0,-0.13333333,0,5332.3467)" />
      <path
         id="path3"
         d="m 31564.7,26388.2 c -459.1,-1242.9 -1600.2,-1745 -2530.3,-2891.4 -53.1,-64.4 -104.6,-130.4 -155.3,-199 l -633.8,368.3 -1817.1,1056.7 c 32.1,617.2 -30.4,1187 -391.6,1608.7 -1206.1,1361.4 -2267.9,2728.8 -1983.4,4148.7 l 675.2,2046.4 c 335.9,1194.7 261.6,2468.1 -108.1,3798.2 -39.6,143.1 38,297.2 180.6,335.3 390,103.3 821.3,-270.1 1320.1,-1409.7 737.6,1087.1 1218.7,221.8 1312.4,-3585.7 8.4,-316.7 99.6,-625.7 265,-895 l 1190,-1946.5 c 87.8,-143.1 274.3,-172.7 400.1,-81.2 23.6,16.9 45.6,38.9 63.3,64.3 430.4,607.1 309.7,1590.9 -641.5,3140.3 -163.7,267.6 -280.2,563.9 -315.6,875.5 -38,329.3 8.4,622.3 164.6,870.4 66.6,106.6 227,80.4 256.5,-41.5 35.5,-146.5 85.3,-287 146.9,-423.4 484.4,-1087.9 1673.6,-1905.8 2048.4,-3318.1 43.9,-165.1 138.4,-312.4 276,-414 677.7,-504.6 910.6,-1413.1 277.6,-3107.3"
         style="fill:#ffffff;fill-opacity:1;fill-rule:nonzero;stroke:none"
         transform="matrix(0.13333333,0,0,-0.13333333,0,5332.3467)" />
      <path
         id="path4"
         d="m 26707.7,24876.7 2101.4,-1222.1 c 370.5,459.5 765.8,811.6 1149.5,1153.5 584.4,520.5 1089,970 1349.7,1674.9 695.9,1862.4 227.9,2485.8 -184.6,2792.8 -182.4,135.7 -316.2,335.9 -376.8,563.8 -204.3,768.4 -677.8,1361.9 -1135.8,1936 -374,468.7 -731,916.3 -941.7,1440.6 -17.3,-109.7 -18.2,-230.2 -3,-362.8 29.1,-254.6 122.3,-511.5 277,-763.6 958.7,-1562.3 1165.4,-2688 631.9,-3441.6 -107,-151.1 -281.4,-237.4 -466.9,-231.4 -186.3,6.2 -355.6,104.9 -452.9,263.8 l -1190.6,1946.1 c -190.2,310.9 -295.6,667.4 -304.6,1031 -80.5,3259.8 -447,3695.8 -521.8,3750.9 -28.6,-12 -125.5,-67.7 -291.3,-312 -55.9,-82.4 -152,-128 -251.3,-118.8 -99.2,9.1 -185.6,71.5 -225.5,162.7 -519.8,1188.9 -855.6,1282.5 -987,1258 l 0.1,-0.2 c 407.4,-1464.2 442.7,-2754.8 108.1,-3945.7 -1.1,-3.9 -2.3,-7.8 -3.6,-11.7 L 24318.2,30411 c -252,-1308.8 811.5,-2643.1 1923,-3898 418,-488.3 479.8,-1111.1 466.5,-1636.3 m 2170.9,-1852.3 c -46.9,0 -94.2,12 -137.3,37.1 l -2450.7,1425.2 c -88.7,51.6 -141,148.3 -135.6,250.7 35.4,674.7 -65.2,1111.6 -326.2,1416.6 -1204.1,1359.3 -2356.5,2820.5 -2043.7,4380.2 2.2,10.8 5,21.5 8.4,31.9 l 673.3,2040.3 c 305,1090.2 269,2282.7 -110.1,3645.3 -39.7,142.3 -20.5,297 52.6,424.5 71.2,124 185.4,212.2 321.9,248.2 640.7,169.1 1119.7,-497.3 1456.1,-1169.3 158.2,142.3 364.4,251.8 599.8,182.6 426.1,-125.1 832.4,-728.6 919.9,-4266.5 6.6,-267.6 84.2,-530.1 224.4,-759.1 L 29122,28966 c 2.4,-4 6.4,-2.7 6.8,-2.5 387.9,548.4 168.7,1503.8 -651.4,2840.3 -196.8,320.6 -316,652.8 -354.3,987.3 -46.4,404.5 22.3,756.7 204.2,1046.7 88.9,141.8 253,216.2 417.7,189.5 164.7,-26.6 296.8,-148.9 336.4,-311.4 140,-575.1 536.9,-1072.6 957.2,-1599.3 470.1,-589.3 1003,-1257.3 1236.8,-2136.5 29.4,-110.6 89.8,-202.4 174.8,-265.6 868.3,-646.2 989.6,-1765.6 370.7,-3422 -307.7,-832 -886.1,-1347.2 -1498.5,-1892.8 -415.4,-370 -844.9,-752.5 -1223.9,-1264.5 -53.3,-72 -135.8,-110.8 -219.9,-110.8"
         style="fill:#371a45;fill-opacity:1;fill-rule:nonzero;stroke:none"
         transform="matrix(0.13333333,0,0,-0.13333333,0,5332.3467)" />
      <path
         id="path5"
         d="m 26377.6,35344.3 c 372.2,-1163.7 383.7,-2399.5 216.7,-3590.6 -8.8,-63.1 -67,-107.1 -130.1,-98.3 -59.4,8.3 -102,60.5 -99.3,119.3 28.7,583.2 14.5,1166.4 -63,1736.7 -77.2,569.6 -219,1125.8 -437.6,1644.4 -133,353.9 384.3,545.9 513.3,188.5"
         style="fill:#371a45;fill-opacity:1;fill-rule:nonzero;stroke:none"
         transform="matrix(0.13333333,0,0,-0.13333333,0,5332.3467)" />
      <path
         id="path6"
         d="m 29136.7,28938.5 c 262.3,-652.8 232.3,-1433.4 -103.1,-2045.5 -68,-125.4 -257.4,-44.6 -214.1,91 200.3,581.2 131.3,1204.5 -178.7,1724.2 -180.8,351.5 343.1,595.9 495.9,230.3"
         style="fill:#371a45;fill-opacity:1;fill-rule:nonzero;stroke:none"
         transform="matrix(0.13333333,0,0,-0.13333333,0,5332.3467)" />
      <path
         id="path7"
         d="m 31379.2,29737.2 c 56.5,-410.8 85.7,-827.2 68.8,-1243.9 -16.8,-416 -80.9,-833.1 -212.6,-1228.8 -22.5,-67.6 -95.6,-104.1 -163.2,-81.6 -63,20.9 -99.1,85.9 -85.5,149.3 154.3,763.8 51.6,1550.6 -143.8,2298.2 -81,375.1 466.5,485.6 536.3,106.8"
         style="fill:#371a45;fill-opacity:1;fill-rule:nonzero;stroke:none"
         transform="matrix(0.13333333,0,0,-0.13333333,0,5332.3467)" />
      <path
         id="path8"
         d="m 27386.5,25237 c -90.2,460.4 -328.3,886.4 -568.6,1298.3 -885.9,1424.4 -1401.7,2637.1 -1286.1,4358.5 10.2,140.5 217.6,138.8 221.9,-5.1 -14.9,-985.8 200.3,-1973.3 670.4,-2841.8 457.3,-908.1 1227.8,-1676.6 1496.2,-2691.3 78.4,-363.3 -449.2,-483.6 -533.8,-118.6"
         style="fill:#371a45;fill-opacity:1;fill-rule:nonzero;stroke:none"
         transform="matrix(0.13333333,0,0,-0.13333333,0,5332.3467)" />
      <path
         id="path9"
         d="m 28019.6,25111.6 c 450.3,206 872.4,467 1239.6,798.7 368,330.3 677.5,729.8 927.1,1169.4 34.1,61 111.4,82.6 172.1,48.1 56.9,-32.3 78.8,-102.6 52.8,-161.2 -215.9,-482.2 -504.1,-941.5 -870.4,-1339.4 -364.9,-399.5 -803.7,-732.3 -1270.5,-1001.6 -130.9,-75.6 -298.4,-30.8 -373.9,100.2 -81,138.4 -22.8,319.8 123.2,385.8"
         style="fill:#371a45;fill-opacity:1;fill-rule:nonzero;stroke:none"
         transform="matrix(0.13333333,0,0,-0.13333333,0,5332.3467)" />
      <path
         id="path10"
         d="m 27747.2,25100.7 c 274.8,872.8 259.9,1610.8 -276.2,2364.6 -298,475.3 -524.1,1002.5 -618.6,1558.2 -86.6,494.2 -64.8,1004.3 51.3,1485.5 17.4,72.3 90.2,116.8 162.5,99.4 70.3,-16.9 114.3,-86.3 100.7,-156.5 -86.1,-453.5 -82.2,-918.8 17.8,-1363 110.6,-502.5 340.7,-972.6 634.1,-1394 655.5,-835.7 719.8,-1748.7 453.3,-2747.7 -108.2,-353.6 -624.1,-205 -524.9,153.5"
         style="fill:#371a45;fill-opacity:1;fill-rule:nonzero;stroke:none"
         transform="matrix(0.13333333,0,0,-0.13333333,0,5332.3467)" />
      <path
         id="path11"
         d="m 28328.1,24551.5 c 588.1,-72.2 1125.5,219.5 1567.9,600.9 82.3,70.6 197.6,-39.6 130.3,-124.9 -401,-526 -1007.1,-978.8 -1698.4,-1022.8 -202.5,-11.2 -303.8,131.1 -303.9,273.4 -0.1,142.5 101.3,284.9 304.1,273.4"
         style="fill:#371a45;fill-opacity:1;fill-rule:nonzero;stroke:none"
         transform="matrix(0.13333333,0,0,-0.13333333,0,5332.3467)" />
      <path
         id="path12"
         d="m 28943.5,23815.7 c -7.4,26.1 -14.9,51.9 -22.7,77.7 42.7,102.2 84,204.5 123.9,306.4 389.4,189.1 726.9,493.7 981.6,827.7 52.2,66.2 -5.5,147.4 -72.5,147.4 -19.3,0 -39.4,-6.7 -57.8,-22.5 -202.5,-174.6 -424.9,-330.3 -662.9,-441 100.7,291.4 189.6,581.8 266.6,871.4 13.8,14.7 27.5,29.5 41.1,44.4 366.3,397.9 654.5,857.2 870.4,1339.4 26,58.6 4.1,128.9 -52.8,161.2 -19.6,11.1 -41,16.4 -62,16.4 -44.2,0 -87,-23.2 -110.1,-64.5 -149.5,-263.3 -320.5,-512.2 -512.6,-740.4 154.2,795.8 215,1584.5 176.9,2365.4 23.6,16.9 45.6,38.9 63.3,64.3 430.4,607.1 309.7,1590.9 -641.4,3140.4 -134.4,219.5 -236.9,458.4 -289,709.3 184.4,-287.6 402.9,-561.5 627.6,-843.1 458,-574.1 931.5,-1167.6 1135.8,-1936 25,-93.8 62.3,-182.9 110.3,-264.8 186,-730.9 279.9,-1497.7 129.5,-2242.6 -13.6,-63.4 22.5,-128.4 85.5,-149.3 13.5,-4.5 27.3,-6.7 40.8,-6.7 54,0 104.4,34.2 122.4,88.3 131.7,395.7 195.8,812.8 212.6,1228.8 6,147.1 6.2,294.2 1.5,441.1 255.6,-398.9 364.5,-1098 -141.2,-2451.4 -260.7,-704.9 -765.3,-1154.4 -1349.7,-1674.9 -337.7,-300.8 -684.3,-609.6 -1015.1,-992.4"
         style="fill:#d7d1da;fill-opacity:1;fill-rule:nonzero;stroke:none"
         transform="matrix(0.13333333,0,0,-0.13333333,0,5332.3467)" />
      <path
         id="path13"
         d="m 29034.4,23496.8 -12.2,7.1 c -23.8,106.8 -50.1,210.8 -78.7,311.8 330.8,382.8 677.4,691.6 1015.1,992.4 584.4,520.5 1089,970 1349.7,1674.9 505.7,1353.4 396.8,2052.5 141.2,2451.4 -4.9,150.8 -14.9,301.2 -29.2,451.2 572.4,-523.3 733.9,-1419.6 144.4,-2997.4 -459.1,-1242.9 -1600.2,-1745 -2530.3,-2891.4 m 1822.8,6078 c -48,81.9 -85.3,171 -110.3,264.8 -204.3,768.4 -677.8,1361.9 -1135.8,1936 -224.7,281.6 -443.2,555.5 -627.6,843.1 -11.4,54.8 -20.4,110.2 -26.7,166.1 -17.7,156.7 -16.9,304 5.9,442.8 479.8,-1077.5 1650.9,-1890 2037.3,-3277.6 -110.1,-45.3 -192,-157.8 -157.1,-319.6 4.8,-18.5 9.6,-37 14.3,-55.6"
         style="fill:#371a45;fill-opacity:1;fill-rule:nonzero;stroke:none"
         transform="matrix(0.13333333,0,0,-0.13333333,0,5332.3467)" />
      <path
         id="path14"
         d="m 31113,27176.2 c -13.5,0 -27.3,2.2 -40.8,6.7 -63,20.9 -99.1,85.9 -85.5,149.3 150.4,744.9 56.5,1511.7 -129.5,2242.6 -4.7,18.6 -9.5,37.1 -14.3,55.6 -34.9,161.8 47,274.3 157.1,319.6 3.8,-13.4 7.5,-26.9 11.1,-40.5 43.9,-165.1 138.4,-312.4 276,-414 46.5,-34.7 91,-71.3 133.2,-109.9 14.3,-150 24.3,-300.4 29.2,-451.2 4.7,-146.9 4.5,-294 -1.5,-441.1 -16.8,-416 -80.9,-833.1 -212.6,-1228.8 -18,-54.1 -68.4,-88.3 -122.4,-88.3"
         style="fill:#371a45;fill-opacity:1;fill-rule:nonzero;stroke:none"
         transform="matrix(0.13333333,0,0,-0.13333333,0,5332.3467)" />
      <path
         id="path15"
         d="m 29499.7,25582.8 c 67.2,252.8 125.2,505 174,756.5 192.1,228.2 363.1,477.1 512.6,740.4 23.1,41.3 65.9,64.5 110.1,64.5 21,0 42.4,-5.3 62,-16.4 56.9,-32.3 78.8,-102.6 52.8,-161.2 -215.9,-482.2 -504.1,-941.5 -870.4,-1339.4 -13.6,-14.9 -27.3,-29.7 -41.1,-44.4"
         style="fill:#371a45;fill-opacity:1;fill-rule:nonzero;stroke:none"
         transform="matrix(0.13333333,0,0,-0.13333333,0,5332.3467)" />
      <path
         id="path16"
         d="m 29044.7,24199.8 c 66.8,170.9 129.6,341.4 188.4,511.6 238,110.7 460.4,266.4 662.9,441 18.4,15.8 38.5,22.5 57.8,22.5 67,0 124.7,-81.2 72.5,-147.4 -254.7,-334 -592.2,-638.6 -981.6,-827.7"
         style="fill:#371a45;fill-opacity:1;fill-rule:nonzero;stroke:none"
         transform="matrix(0.13333333,0,0,-0.13333333,0,5332.3467)" />
      <path
         id="path17"
         d="m 12279.4,10724.7 c -1927.1,1100.7 -2489.77,4289.8 -154.7,5813.8 5189.9,3250.6 13489.1,4135 14328,8479.6 43.3,224.4 228.1,397 454.7,420.3 C 29851.9,25741.9 29791,16927.1 25291,13575.1 21633.7,9144.2 17554.4,7479.1 12771.8,10047.3 L 12251,9674.2 c -293.1,-210.1 -684,-223.5 -990.4,-33.5 -1156.5,717.1 -1813,1580.5 -1770.03,2648.6 12.28,305.4 176.23,584.7 438.3,740.6 226.23,134.5 452.43,269.1 678.53,403.7 l 1672,-2708.9"
         style="fill:#ff935c;fill-opacity:1;fill-rule:nonzero;stroke:none"
         transform="matrix(0.13333333,0,0,-0.13333333,0,5332.3467)" />
      <path
         id="path18"
         d="m 28694.4,19468 c -1682.2,-382.3 -2613.2,-145.9 -2131,1254 55.5,161.3 87.9,329.6 87.9,500.1 v 189.5 c 0,145.3 -27.1,291.3 -93.6,420.4 -615.1,1194.2 1092.9,2928 2297.1,909.4 51.9,-1142.7 28.2,-2248.3 -160.4,-3273.4"
         style="fill:#ffffff;fill-opacity:1;fill-rule:nonzero;stroke:none"
         transform="matrix(0.13333333,0,0,-0.13333333,0,5332.3467)" />
      <path
         id="path19"
         d="m 20428,11260.9 c 634,98.7 1157.1,-50.7 1340.6,-959.6 L 19692.5,9370 c 393.2,712.6 762.7,1412.2 735.5,1890.9"
         style="fill:#ffffff;fill-opacity:1;fill-rule:nonzero;stroke:none"
         transform="matrix(0.13333333,0,0,-0.13333333,0,5332.3467)" />
      <path
         id="path20"
         d="m 12771.8,10320.8 c 44.3,0 88.8,-10.8 129.3,-32.6 4346.5,-2334 8330.3,-1201.9 12179.1,3461 13.9,16.9 29.9,32.1 47.5,45.2 3217.6,2396.8 4124.4,7783.3 3165.5,10245 -216.5,555.6 -627.6,1202 -1357.8,1127.1 -105.5,-10.9 -193.6,-93.2 -214.3,-200.2 -565.4,-2928.3 -4259.5,-4331.9 -8170.5,-5817.9 -2178.5,-827.7 -4431.2,-1683.6 -6278.6,-2840.2 -1265.9,-827.5 -1423.5,-2015.7 -1404.6,-2650.5 1.8,-61.7 5.4,-123.2 10.6,-184.4 1.5,-9.9 2.4,-19.9 2.7,-29.8 98.9,-1038.6 685.4,-1996.6 1534.4,-2481.4 131.1,-74.9 176.6,-241.9 101.7,-373.1 -74.9,-131 -241.9,-176.7 -373,-101.7 -888.7,507.5 -1533.2,1449 -1747.3,2502.6 l -327.9,-195 c -182.21,-108.5 -296.19,-301.6 -304.84,-516.6 -36.63,-911.2 500.14,-1698 1640.84,-2405.2 213.2,-132.2 482.9,-123 687.2,23.3 l 520.7,373.2 c 47.4,33.9 103.2,51.2 159.3,51.2 m 4409.9,-1756.9 c -1430.9,0 -2898.8,388.2 -4388.2,1162.7 l -383.2,-274.7 c -384.5,-275.4 -892.3,-292.5 -1293.8,-43.5 -1304.8,808.9 -1943.76,1781.9 -1899.12,2891.9 16.11,400.6 229.82,761.1 571.67,964.6 l 533.95,317.6 c -0.9,19.7 -1.6,39.2 -2.2,58.9 -37.8,1275.7 565.2,2415.1 1654.4,3126.1 1.5,0.9 2.9,1.8 4.3,2.8 1893.5,1185.9 4172.7,2051.8 6376.9,2889.3 3764.4,1430.3 7320.2,2781.3 7827.8,5410.4 66,341.6 351.8,605 695.1,640.4 837,86.5 1519.9,-436.7 1923.4,-1472.6 525.5,-1349 529,-3441.4 9.1,-5460.7 C 28215.3,16460.3 27033.1,14543.7 25481,13375.8 23534.6,11024.1 21589.5,9568.4 19535,8925.6 18764.1,8684.4 17978.6,8564 17181.7,8563.9"
         style="fill:#371a45;fill-opacity:1;fill-rule:nonzero;stroke:none"
         transform="matrix(0.13333333,0,0,-0.13333333,0,5332.3467)" />
      <path
         id="path21"
         d="m 18147.6,8624.8 c -128.1,0 -242.5,90.5 -268.1,221 -29,148.2 67.7,291.8 215.9,320.8 921.2,180.3 1616.7,734.3 1908.3,1519.9 348.6,939.4 95.4,2054.1 -694.8,3058.2 -93.4,118.7 -72.9,290.6 45.8,384 118.7,93.4 290.5,72.9 383.9,-45.8 910.7,-1157.3 1194.2,-2464.6 777.8,-3586.7 -359.4,-968.3 -1203.6,-1648.5 -2316,-1866.2 -17.7,-3.5 -35.4,-5.2 -52.8,-5.2"
         style="fill:#371a45;fill-opacity:1;fill-rule:nonzero;stroke:none"
         transform="matrix(0.13333333,0,0,-0.13333333,0,5332.3467)" />
      <path
         id="path22"
         d="m 15245.9,10141.9 c 92.2,-885.2 228.3,-1881 882.2,-2537.9 763.2,-725 2023.2,-692.5 2858.5,-94.9 1803.7,1295.9 3526.2,1160.8 5008.7,-515.1 58.9,-71.4 -34.3,-171.7 -109.3,-102.2 -1082.3,1122.6 -2403.9,1600.3 -3844.3,835.1 -320.1,-162.1 -615.6,-375.6 -902.2,-592.1 -539.9,-388.4 -1211.1,-585.8 -1882.7,-536.3 -1524.9,120.7 -2229.1,1240.3 -2534,2621.1 -62.5,280.6 -109.3,564.9 -148.9,846.1 -47.9,459.4 614.9,536.1 672,76.2"
         style="fill:#371a45;fill-opacity:1;fill-rule:nonzero;stroke:none"
         transform="matrix(0.13333333,0,0,-0.13333333,0,5332.3467)" />
      <path
         id="path23"
         d="m 12624.8,16963.5 c -757.6,983.5 -954.4,2188.6 216.2,2947.5 92.2,61.5 196.4,119.6 294.3,170.7 499.5,247.3 967.6,558 1354.9,958.6 365.2,375.2 652.4,830.2 855.6,1333.1 15.2,37.9 58.2,56.3 96.1,41.1 33.5,-13.5 51.7,-49 44.9,-83.2 -232.4,-1218.6 -1102.6,-2182.7 -2159.4,-2790 -963.6,-617.1 -734.2,-1359.9 -156.7,-2178.5 244.7,-369.2 -266.8,-744.6 -545.9,-399.3"
         style="fill:#371a45;fill-opacity:1;fill-rule:nonzero;stroke:none"
         transform="matrix(0.13333333,0,0,-0.13333333,0,5332.3467)" />
      <path
         id="path24"
         d="m 17147.3,11374.4 c 179,514.4 80.2,1016.9 -220.8,1122.2 -300.9,105.4 -690,-226.2 -869,-740.6 -179,-514.4 -80.2,-1016.9 220.8,-1122.3 300.9,-105.4 690,226.2 869,740.7"
         style="fill:#371a45;fill-opacity:1;fill-rule:nonzero;stroke:none"
         transform="matrix(0.13333333,0,0,-0.13333333,0,5332.3467)" />
      <path
         id="path25"
         d="m 21760.4,17307 c -555.4,-5.7 -685.6,729.1 -1263.8,786.4 -668,66.2 -1221,-842.5 -1263.8,-914.8 -30.4,-51.2 -620.1,-1082.5 -96,-1974 583.3,-992.2 2112.4,-1073.3 2639.6,-674 70.6,53.4 187.2,163.9 384,208.6 333.4,75.7 566.2,-112.5 847.9,-208.6 727.9,-248.5 1495.1,215.8 1615.8,288.8 375.1,227 992.9,764.6 895.9,1251.8 -49.2,246.9 -236.4,252.6 -703.9,850.6 -341.1,436.2 -267.3,466.3 -448,625.9 -415.8,367.3 -1108.6,474.8 -1663.8,288.9 -552.4,-185 -566,-525.8 -943.9,-529.6"
         style="fill:#ffffff;fill-opacity:1;fill-rule:nonzero;stroke:none"
         transform="matrix(0.13333333,0,0,-0.13333333,0,5332.3467)" />
      <path
         id="path26"
         d="m 25627.9,19221.5 c -48.2,312.7 -548.1,494.8 -1116.5,406.7 -568.5,-88.1 -990.2,-413.1 -942.1,-725.8 48.2,-312.7 548.1,-494.8 1116.5,-406.7 568.5,88.1 990.2,413.1 942.1,725.8"
         style="fill:#ffffff;fill-opacity:1;fill-rule:nonzero;stroke:none"
         transform="matrix(0.13333333,0,0,-0.13333333,0,5332.3467)" />
      <path
         id="path27"
         d="m 25234,15242.1 c -48.2,312.7 -548,494.8 -1116.5,406.7 -568.4,-88.1 -990.2,-413 -942,-725.8 48.1,-312.7 548,-494.7 1116.4,-406.6 568.5,88.1 990.3,413 942.1,725.7"
         style="fill:#381a46;fill-opacity:1;fill-rule:nonzero;stroke:none"
         transform="matrix(0.13333333,0,0,-0.13333333,0,5332.3467)" />
      <path
         id="path28"
         d="m 27234.7,23859 c -297.8,104.3 -692.9,-252.8 -882.5,-797.6 -189.5,-544.8 -101.8,-1071 196,-1175.3 297.8,-104.2 692.9,252.9 882.5,797.6 189.5,544.8 101.8,1071 -196,1175.3"
         style="fill:#381a46;fill-opacity:1;fill-rule:nonzero;stroke:none"
         transform="matrix(0.13333333,0,0,-0.13333333,0,5332.3467)" />
      <path
         id="path29"
         d="m 21211.7,13716.3 c 54.8,-72.8 301,104.4 703.3,169.3 160.4,25.9 561.8,90.6 928.4,-112.9 35,-19.4 522.5,-297.6 478.3,-649.1 -25.6,-203.9 -217.8,-333.3 -309.5,-395.1 -256.6,-172.9 -469.6,-148.6 -759.6,-197.6 -697,-117.7 -727,-471.1 -1153.4,-451.5 -424.5,19.4 -944.7,394.9 -1019.9,944.1 -56.7,414.5 158.2,795.3 429.1,1003.2 336.3,258.2 827,302.2 900.2,169.4 70.7,-128.1 -261.7,-393.6 -196.9,-479.8"
         style="fill:#381a46;fill-opacity:1;fill-rule:nonzero;stroke:none"
         transform="matrix(0.13333333,0,0,-0.13333333,0,5332.3467)" />
      <path
         id="path30"
         d="m 17163.7,9111.9 c -597.2,0 -1200.9,73.1 -1810.8,218.9 -48,272.2 -79.5,546.6 -107,811.1 -26.2,211 -179.8,309 -333.9,309 -181.7,0 -364,-136.6 -338.1,-385.2 25.2,-179 53.3,-359.3 86.6,-539.1 -580,189.2 -1166.5,443.2 -1759.4,761.6 -40.5,21.8 -85,32.6 -129.3,32.6 -56.1,0 -111.9,-17.3 -159.3,-51.2 l -520.7,-373.2 c -108.2,-77.4 -234.6,-116.4 -361.3,-116.4 -112.6,0 -225.5,30.9 -325.9,93.1 -834.2,517.2 -1345.5,1077 -1545.61,1696.8 148.61,-113 308.91,-222.7 480.51,-329 144.2,-89.5 307.2,-133.8 469.8,-133.8 154.3,0 308.4,39.9 446,119.1 255.1,-296.2 554.6,-548.2 888.5,-738.9 42.8,-24.5 89.4,-36.1 135.4,-36.1 94.9,0 187.2,49.5 237.6,137.8 74.9,131.2 29.4,298.2 -101.7,373.1 -265,151.3 -504.3,348.6 -711.3,580.2 l 146.9,105.2 c 1536.3,-825 2999.9,-1213.2 4400.4,-1213.2 1358.2,0.1 2657.1,365.2 3904.8,1051.1 -7.2,-275.4 -57.5,-543.6 -152.2,-798.9 -284.1,-765.5 -951.7,-1311 -1837.9,-1505.3 -332.2,-46.2 -666.2,-69.3 -1002.1,-69.3"
         style="fill:#d2482d;fill-opacity:1;fill-rule:nonzero;stroke:none"
         transform="matrix(0.13333333,0,0,-0.13333333,0,5332.3467)" />
      <path
         id="path31"
         d="m 17052.9,8741 c -527.4,0 -1063.8,55 -1609.6,167.8 -35.8,138.9 -65.3,280.2 -90.4,422 609.9,-145.8 1213.6,-218.9 1810.8,-218.9 335.9,0 669.9,23.1 1002.1,69.3 -23.3,-5.1 -46.8,-10 -70.4,-14.6 -148.2,-29 -244.9,-172.6 -215.9,-320.8 4,-20.1 10,-39.3 17.9,-57.3 -279.1,-31.6 -560.3,-47.5 -844.5,-47.5 m -2297.7,339.1 c -685.8,199.7 -1386.4,489.3 -2102.8,874 L 12131.7,9581 c -155.2,-111.2 -337.7,-167.3 -520.6,-167.3 -162.6,0 -325.6,44.4 -469.8,133.8 -1083.3,671.6 -1727.74,1471.7 -1769.73,2448.1 144.87,-147 307.61,-288.8 487.42,-425.7 200.11,-619.8 711.41,-1179.6 1545.61,-1696.8 100.4,-62.2 213.3,-93.1 325.9,-93.1 126.7,0 253.1,39 361.3,116.4 l 520.7,373.2 c 47.4,33.9 103.2,51.2 159.3,51.2 44.3,0 88.8,-10.8 129.3,-32.6 592.9,-318.4 1179.4,-572.4 1759.4,-761.6 18.9,-102.6 39.6,-205 62.3,-307 10.3,-46.8 21.1,-93.3 32.4,-139.5 m -2476,1371.1 c -46,0 -92.6,11.6 -135.4,36.1 -333.9,190.7 -633.4,442.7 -888.5,738.9 25.4,14.7 50.4,30.8 74.6,48.1 l 373.9,268 c 207,-231.6 446.3,-428.9 711.3,-580.2 131.1,-74.9 176.6,-241.9 101.7,-373.1 -50.4,-88.3 -142.7,-137.8 -237.6,-137.8"
         style="fill:#371a45;fill-opacity:1;fill-rule:nonzero;stroke:none"
         transform="matrix(0.13333333,0,0,-0.13333333,0,5332.3467)" />
      <path
         id="path32"
         d="m 21693.3,10582.5 c -184.9,532.6 -530.9,704.7 -953.9,704.7 -15.4,0 -31,-0.2 -46.7,-0.7 14.6,170.4 15.2,343 2,516.8 139.4,87.9 277.9,179.7 416.1,275.6 7.4,-0.2 14.7,-0.3 21.9,-0.3 348.9,0 426.1,263.7 907,404.1 3,-16.7 7.6,-33.3 13.9,-49.7 127.9,-333.5 380.5,-698.6 709.1,-1050.2 -355,-295.8 -711.3,-562.4 -1069.4,-800.3 m 1362.7,3040.9 c -18.9,16.1 -37.7,31 -55.7,44.8 16.6,16.4 33,32.7 49.6,49.2 -0.1,-0.6 -0.2,-1.3 -0.2,-1.9 -3.2,-31.8 -0.9,-62.8 6.3,-92.1 m 2122.5,209.2 c -572.8,19.8 -1181.2,62.2 -1829.4,127.5 -9.7,1 -19.2,1.5 -28.7,1.5 -10.9,0 -21.7,-0.7 -32.4,-1.9 164.7,170.6 328.3,346.6 491.3,528.4 23.2,4.3 46,8.9 68.6,13.8 52,-5.1 105.8,-7.7 161.1,-7.7 91,0 186,7.1 282.9,22.2 568.5,88.1 990.3,413 942.1,725.7 -3.6,23.3 -9.6,45.8 -18.1,67.5 206.9,232.4 355.4,504 304.1,761.6 -9.8,49.2 -25.1,88.8 -47,125.5 791.5,897.3 1387.4,1983 1801.6,3116.5 37.1,-3.3 75.3,-5.6 114.6,-7.1 -24.3,-24.3 -47.9,-48 -70.6,-71.2 -105.9,-107.7 -104.4,-280.8 3.3,-386.6 23.5,-23.1 50.2,-41.1 78.5,-54 l -473.5,-1042.5 c -98.6,-41.4 -197.5,-86.8 -296.2,-136.6 -134.7,-68.1 -188.9,-232.6 -120.8,-367.3 48.1,-95.3 144.3,-150.3 244.3,-150.3 41.4,0 83.5,9.5 123,29.4 311.9,157.5 625.3,265.3 931.8,345 -571.8,-1419.8 -1441.1,-2734.8 -2630.5,-3639.4 m 3352.2,9353.5 c -173.8,191.3 -352.5,319.3 -528.8,395 -10.3,412.6 -47,804 -109.3,1164.9 176.7,-208.6 306.9,-466.1 400.6,-706.6 99.3,-255.2 178.7,-541.9 237.5,-853.3"
         style="fill:#d2482d;fill-opacity:1;fill-rule:nonzero;stroke:none"
         transform="matrix(0.13333333,0,0,-0.13333333,0,5332.3467)" />
      <path
         id="path33"
         d="m 27389.2,19306.1 c -39.3,1.5 -77.5,3.8 -114.6,7.1 527,1442.1 759.9,2961.4 727.3,4267.9 176.3,-75.7 355,-203.7 528.8,-395 157.2,-832.1 167.7,-1841.1 22.1,-2902.3 -446.5,-298.2 -863.3,-677.9 -1163.6,-977.7"
         style="fill:#d7d1da;fill-opacity:1;fill-rule:nonzero;stroke:none"
         transform="matrix(0.13333333,0,0,-0.13333333,0,5332.3467)" />
      <path
         id="path34"
         d="m 20066.7,9705.7 c 189.8,234.4 341.6,499.4 449.7,790.5 94.7,255.2 153.2,519.9 176.3,790.3 15.7,0.5 31.3,0.7 46.7,0.7 423,0 769,-172.1 953.9,-704.7 -538.4,-357.6 -1080.3,-649.7 -1626.6,-876.8"
         style="fill:#d7d1da;fill-opacity:1;fill-rule:nonzero;stroke:none"
         transform="matrix(0.13333333,0,0,-0.13333333,0,5332.3467)" />
      <path
         id="path35"
         d="m 19421.9,9121.3 c 246.3,163.8 463,360 644.8,584.4 546.3,227.1 1088.2,519.2 1626.6,876.8 358.1,237.9 714.4,504.5 1069.4,800.3 60.5,-64.8 123.6,-129 189,-192.6 -1132.7,-968.9 -2306.5,-1671 -3529.8,-2068.9 m 6170.7,4700.9 c -135.9,2.1 -274,5.6 -414.1,10.4 1189.4,904.6 2058.7,2219.6 2630.5,3639.4 78.3,20.3 156.2,38.9 233.5,55.9 -526.9,-1404.7 -1334.7,-2729.9 -2449.9,-3705.7 m 2960.2,6461.6 c 145.6,1061.2 135.1,2070.2 -22.1,2902.3 -58.8,311.4 -138.2,598.1 -237.5,853.3 -93.7,240.5 -223.9,498 -400.6,706.6 -13.2,76.4 -27.6,151.6 -43,225.2 794.1,-758.5 1115.8,-2557.2 884.1,-4572.3 -60.7,-36.7 -121,-75.1 -180.9,-115.1"
         style="fill:#371a45;fill-opacity:1;fill-rule:nonzero;stroke:none"
         transform="matrix(0.13333333,0,0,-0.13333333,0,5332.3467)" />
      <path
         id="path36"
         d="m 17897.4,8788.5 c -7.9,18 -13.9,37.2 -17.9,57.3 -29,148.2 67.7,291.8 215.9,320.8 23.6,4.6 47.1,9.5 70.4,14.6 886.2,194.3 1553.8,739.8 1837.9,1505.3 94.7,255.3 145,523.5 152.2,798.9 180.6,99.3 360.2,205.3 538.8,317.9 13.2,-173.8 12.6,-346.4 -2,-516.8 -23.1,-270.4 -81.6,-535.1 -176.3,-790.3 -108.1,-291.1 -259.9,-556.1 -449.7,-790.5 -181.8,-224.4 -398.5,-420.6 -644.8,-584.4 -499.7,-162.6 -1007.9,-274.4 -1524.5,-332.8"
         style="fill:#371a45;fill-opacity:1;fill-rule:nonzero;stroke:none"
         transform="matrix(0.13333333,0,0,-0.13333333,0,5332.3467)" />
      <path
         id="path37"
         d="m 15443.3,8908.8 c -227.5,47 -457.3,104.1 -688.1,171.3 -11.3,46.2 -22.1,92.7 -32.4,139.5 -22.7,102 -43.4,204.4 -62.3,307 -33.3,179.8 -61.4,360.1 -86.6,539.1 -25.9,248.6 156.4,385.2 338.1,385.2 154.1,0 307.7,-98 333.9,-309 27.5,-264.5 59,-538.9 107,-811.1 25.1,-141.8 54.6,-283.1 90.4,-422"
         style="fill:#371a45;fill-opacity:1;fill-rule:nonzero;stroke:none"
         transform="matrix(0.13333333,0,0,-0.13333333,0,5332.3467)" />
      <path
         id="path38"
         d="m 23779.3,14488.1 c 5.9,6.6 11.8,13.2 17.6,19.7 16.8,-2.2 33.8,-4.2 51,-5.9 -22.6,-4.9 -45.4,-9.5 -68.6,-13.8 m 1436.6,821.5 c -47.5,122.8 -169.6,220.7 -337.9,283.5 209.5,189.5 407.6,391.1 595,603.6 21.9,-36.7 37.2,-76.3 47,-125.5 51.3,-257.6 -97.2,-529.2 -304.1,-761.6"
         style="fill:#d7d1da;fill-opacity:1;fill-rule:nonzero;stroke:none"
         transform="matrix(0.13333333,0,0,-0.13333333,0,5332.3467)" />
      <path
         id="path39"
         d="m 24009,14494.2 c -55.3,0 -109.1,2.6 -161.1,7.7 -17.2,1.7 -34.2,3.7 -51,5.9 192.1,214.8 383.3,437.6 573,667.5 176.2,131.2 345.5,270.8 508.1,417.8 168.3,-62.8 290.4,-160.7 337.9,-283.5 8.5,-21.7 14.5,-44.2 18.1,-67.5 48.2,-312.7 -373.6,-637.6 -942.1,-725.7 -96.9,-15.1 -191.9,-22.2 -282.9,-22.2"
         style="fill:#381a46;fill-opacity:1;fill-rule:nonzero;stroke:none"
         transform="matrix(0.13333333,0,0,-0.13333333,0,5332.3467)" />
      <path
         id="path40"
         d="m 21132.7,12078.6 c -7.2,0 -14.5,0.1 -21.9,0.3 642.8,446.3 1272.5,978.3 1889.5,1589.3 18,-13.8 36.8,-28.7 55.7,-44.8 13.4,-55.1 43.6,-104.2 85.5,-141 l -652.5,-745.6 c -49.6,43.3 -113.6,67.6 -180.1,67.6 -32.5,0 -65.6,-5.8 -97.9,-18.2 -124.6,-47.8 -194.1,-176.8 -171.3,-303.5 -480.9,-140.4 -558.1,-404.1 -907,-404.1"
         style="fill:#381a46;fill-opacity:1;fill-rule:nonzero;stroke:none"
         transform="matrix(0.13333333,0,0,-0.13333333,0,5332.3467)" />
      <path
         id="path41"
         d="m 16558.3,17198.9 c -75.4,1424.8 448.9,2376.9 1755.7,2712.2 1478.6,755.2 2756.9,1729.2 3811.3,2947.9 104.4,120.7 296.5,115.4 390.5,-13.6 216.3,-296.8 268.9,-634.9 32.6,-1045.9 -66.6,-116 -96.4,-249.7 -93,-383.5 l 32.4,-1279.9 c 2.5,-97 -44.4,-188.7 -124.9,-242.6 -1608.3,-1075.7 -3400.9,-2060.5 -5494,-2897 -144.9,-57.9 -302.3,46.3 -310.6,202.4"
         style="fill:#ffffff;fill-opacity:1;fill-rule:nonzero;stroke:none"
         transform="matrix(0.13333333,0,0,-0.13333333,0,5332.3467)" />
      <path
         id="path42"
         d="m 30295.4,19897.6 c -105.5,-412.4 -136.8,-861.1 -81.1,-1341.2 -202.5,-577.4 -1137.7,-518.1 -2242.5,-764.5 -393.3,-87.2 -807.7,-213.4 -1217.8,-420.8 l 759.6,1672.2 c 803.4,817 1650,1412.2 2244.2,1455.4 33.7,2.5 66.6,2.5 98.7,1.7 302.1,-11 514,-309 438.9,-602.8"
         style="fill:#ffffff;fill-opacity:1;fill-rule:nonzero;stroke:none"
         transform="matrix(0.13333333,0,0,-0.13333333,0,5332.3467)" />
      <path
         id="path43"
         d="m 28638.6,12869.3 c -710.7,-466.5 -1192.6,-1148.9 -1490.5,-2003.2 -628.8,-1695.1 -2825.7,-662.1 -4058.8,572.3 -368.8,368.3 -651.5,755.3 -780.7,1092.2 l 1012.8,1157.4 c 1590.9,-160 3078.9,-197.2 4410.8,-43.1 h 0.8 c 16.9,0.8 32.9,3.4 48.9,5 259.2,30.5 517.4,-78.7 671,-290.4 102.2,-139.7 164.6,-303.1 185.7,-490.2"
         style="fill:#ffffff;fill-opacity:1;fill-rule:nonzero;stroke:none"
         transform="matrix(0.13333333,0,0,-0.13333333,0,5332.3467)" />
      <path
         id="path44"
         d="m 25908.1,9702.9 c -1421.3,0 -3405.7,1559.6 -3854.5,2730.1 -54,141 16.4,299.1 157.4,353.2 141,54.1 299.2,-16.4 353.2,-157.4 378,-986 2167.9,-2379 3343.4,-2379 2.8,0 5.5,0 8.2,0 479.4,2.7 798.3,234.5 974.8,708.7 305.2,872.8 790.8,1556 1444.9,2033.5 -23.5,75.4 -57.9,143.9 -103.7,207 -94.4,129.9 -254.3,198.7 -418,179.1 -1280.5,-151.7 -2758.8,-139.4 -4519.5,38 -150.2,15 -259.7,149.1 -244.6,299.4 15.1,150.2 148.9,260.4 299.4,244.6 1720.5,-173.2 3159.9,-186 4400.3,-39 359.9,42.4 714.2,-110.9 924.8,-400.7 130.1,-179.1 209.6,-387.5 236.3,-619.5 11.8,-102.7 -35.3,-203.2 -121.6,-259.9 -638.5,-418.8 -1090.9,-1029 -1383,-1865.3 -0.5,-1.7 -1.1,-3.3 -1.7,-4.9 -257.4,-694.6 -771,-1063.8 -1485.3,-1067.8 -3.6,0 -7.3,-0.1 -10.8,-0.1"
         style="fill:#371a45;fill-opacity:1;fill-rule:nonzero;stroke:none"
         transform="matrix(0.13333333,0,0,-0.13333333,0,5332.3467)" />
      <path
         id="path45"
         d="m 23565.9,13227 c 939.2,-343 1926.6,-415.5 2916.4,-496.7 98.6,-9.5 106.2,-153.6 8.8,-173 -765.1,-142.7 -1574.1,-118.9 -2316,133.4 -249,86.3 -490.2,202.1 -703.7,357.7 -45.6,33.2 -55.7,97 -22.5,142.6 27.3,37.5 75.5,51 117,36"
         style="fill:#371a45;fill-opacity:1;fill-rule:nonzero;stroke:none"
         transform="matrix(0.13333333,0,0,-0.13333333,0,5332.3467)" />
      <path
         id="path46"
         d="m 23319.7,12621.1 c 315.1,-229.2 623.8,-442 967.6,-617.1 342.5,-178.4 700.2,-307 1066.6,-441.4 127.1,-45.7 92.7,-237.1 -41.4,-236.5 -632.1,7.2 -1264.9,250.2 -1743.6,664.4 -159.7,140 -302.8,298.8 -414,478.4 -33.2,53.7 -16.6,124.1 37.1,157.3 40.7,25.2 91.3,21.7 127.7,-5.1"
         style="fill:#371a45;fill-opacity:1;fill-rule:nonzero;stroke:none"
         transform="matrix(0.13333333,0,0,-0.13333333,0,5332.3467)" />
      <path
         id="path47"
         d="m 23303.7,11607 c -348.2,342.6 -617.4,703.4 -739.5,1021.8 -16.5,43.1 -42.7,79.6 -75.2,108 l 652.5,745.6 c 41.3,-36.3 93.9,-60.4 152.8,-66.3 947.7,-95.5 1813.4,-143.1 2610.7,-143.1 396.5,0 776.2,11.8 1140.4,35.3 -410,-182.3 -843.9,-349.6 -1276.5,-517 -748.8,70.8 -1489.8,175.2 -2203,435.7 -11.1,4 -22.8,6 -34.4,6 -31.5,0 -62.6,-14.6 -82.6,-42 -33.2,-45.6 -23.1,-109.4 22.5,-142.6 213.5,-155.6 454.7,-271.4 703.7,-357.7 277.5,-94.4 564.3,-156.8 854.8,-190.5 -315.7,-128.6 -622.6,-261.9 -910.5,-406.3 -278.2,156 -536.7,335.9 -799.7,527.2 -19.7,14.5 -43.5,22.2 -67.7,22.2 -20.5,0 -41.3,-5.5 -60,-17.1 -53.7,-33.2 -70.3,-103.6 -37.1,-157.3 111.2,-179.6 254.3,-338.4 414,-478.4 46.7,-40.4 94.9,-79.2 144.4,-116.3 -144.1,-84.6 -281.2,-173.4 -409.6,-267.2"
         style="fill:#d7d1da;fill-opacity:1;fill-rule:nonzero;stroke:none"
         transform="matrix(0.13333333,0,0,-0.13333333,0,5332.3467)" />
      <path
         id="path48"
         d="m 23089.3,11438.4 c -368.8,368.3 -651.5,755.3 -780.7,1092.2 l 180.4,206.2 c 32.5,-28.4 58.7,-64.9 75.2,-108 122.1,-318.4 391.3,-679.2 739.5,-1021.8 -74.5,-54.4 -146,-110.5 -214.4,-168.6 M 25905,13273 c -797.3,0 -1663,47.6 -2610.7,143.1 -58.9,5.9 -111.5,30 -152.8,66.3 l 179.9,205.6 c 895.9,-90.1 1759.3,-141.2 2580.4,-141.3 637,0 1248.5,30.8 1830.4,98.2 -217.6,-119.3 -448.1,-230.4 -686.8,-336.6 -364.2,-23.5 -743.9,-35.3 -1140.4,-35.3"
         style="fill:#371a45;fill-opacity:1;fill-rule:nonzero;stroke:none"
         transform="matrix(0.13333333,0,0,-0.13333333,0,5332.3467)" />
      <path
         id="path49"
         d="m 25029.9,12500.2 c -290.5,33.7 -577.3,96.1 -854.8,190.5 -249,86.3 -490.2,202.1 -703.7,357.7 -45.6,33.2 -55.7,97 -22.5,142.6 20,27.4 51.1,42 82.6,42 11.6,0 23.3,-2 34.4,-6 713.2,-260.5 1454.2,-364.9 2203,-435.7 -248.3,-96.1 -496.3,-192.2 -739,-291.1"
         style="fill:#371a45;fill-opacity:1;fill-rule:nonzero;stroke:none"
         transform="matrix(0.13333333,0,0,-0.13333333,0,5332.3467)" />
      <path
         id="path50"
         d="m 23713.3,11874.2 c -49.5,37.1 -97.7,75.9 -144.4,116.3 -159.7,140 -302.8,298.8 -414,478.4 -33.2,53.7 -16.6,124.1 37.1,157.3 18.7,11.6 39.5,17.1 60,17.1 24.2,0 48,-7.7 67.7,-22.2 263,-191.3 521.5,-371.2 799.7,-527.2 -140.3,-70.4 -276.1,-143.4 -406.1,-219.7"
         style="fill:#371a45;fill-opacity:1;fill-rule:nonzero;stroke:none"
         transform="matrix(0.13333333,0,0,-0.13333333,0,5332.3467)" />
      <path
         id="path51"
         d="m 26754.2,17097.6 c -100,0 -196.2,55 -244.3,150.3 -68.1,134.7 -13.9,299.2 120.8,367.3 762.1,384.6 1531.5,503.2 2149.7,598.5 627.5,96.8 1031.8,169.7 1154.4,385.7 -46.9,474.6 -14.7,933.7 95.6,1365.8 16.2,63.1 2.7,129.7 -36.8,182.5 -21.2,28.3 -68.6,76.4 -147.1,79.2 -470.3,17.4 -1287.6,-510.2 -2138,-1375.3 -105.8,-107.6 -278.9,-109.2 -386.6,-3.3 -107.7,105.8 -109.2,278.9 -3.3,386.6 578,588 1678.6,1570.3 2547.5,1538.5 223.6,-8.1 429.6,-116.7 565.3,-298.1 139.2,-185.9 186.1,-421.2 128.9,-645.4 -99.6,-389.7 -124.6,-807.6 -74.3,-1242 4.7,-41.1 0.1,-82.8 -13.6,-121.8 -201.7,-575.9 -853.7,-676.4 -1608.6,-792.8 -610.3,-94.1 -1302,-200.7 -1986.6,-546.3 -39.5,-19.9 -81.6,-29.4 -123,-29.4"
         style="fill:#371a45;fill-opacity:1;fill-rule:nonzero;stroke:none"
         transform="matrix(0.13333333,0,0,-0.13333333,0,5332.3467)" />
      <path
         id="path52"
         d="m 26926.9,17751.8 473.5,1042.5 c 35.9,-16.3 74.5,-24.4 113.1,-24.4 70.8,0 141.5,27.3 195,81.7 691.3,703.2 1360.6,1183.4 1839.5,1329.1 l -1363.2,-2066.1 c -395.6,-74.8 -824.6,-180.8 -1257.9,-362.8"
         style="fill:#d7d1da;fill-opacity:1;fill-rule:nonzero;stroke:none"
         transform="matrix(0.13333333,0,0,-0.13333333,0,5332.3467)" />
      <path
         id="path53"
         d="m 26754,17371.1 172.9,380.7 c 433.3,182 862.3,288 1257.9,362.8 l -213,-322.7 c -393.3,-87.2 -807.7,-213.4 -1217.8,-420.8 m 759.5,1398.8 c -38.6,0 -77.2,8.1 -113.1,24.4 l 113.2,249 c 803.4,817 1650,1412.2 2244.2,1455.4 l -209.8,-318 c -478.9,-145.7 -1148.2,-625.9 -1839.5,-1329.1 -53.5,-54.4 -124.2,-81.7 -195,-81.7"
         style="fill:#371a45;fill-opacity:1;fill-rule:nonzero;stroke:none"
         transform="matrix(0.13333333,0,0,-0.13333333,0,5332.3467)" />
      <path
         id="path54"
         d="m 22313.2,22658.3 c -1049.8,-1207.4 -2353.4,-2213.6 -3874.8,-2990.7 -18,-9.2 -36.9,-16.3 -56.4,-21.3 -1113.4,-285.7 -1608.1,-1040 -1553.6,-2371.4 1902.4,764.9 3663.6,1696.2 5382.5,2845.9 2.3,1.5 3.7,4.8 3.6,8.4 l -32.4,1279.8 c -4.8,189.1 39.9,371.3 129.3,526.7 157.5,274.2 158.7,492.1 1.8,722.6 z m -5527.1,-5951 c -94,0 -187.6,26.5 -268.9,78.4 -136.6,87.4 -223.3,236.5 -231.9,398.8 v 0 c -85.6,1617.2 564,2620.9 1930.7,2983.6 1456.2,747.7 2701.8,1713.1 3702.5,2869.8 105.3,121.8 258,188.3 419.7,181 159.7,-6.6 305,-84.1 398.6,-212.5 304.4,-417.8 320.8,-869.7 48.6,-1343.2 -39.3,-68.4 -58.9,-151.5 -56.6,-240.3 l 32.4,-1279.9 c 4.8,-192.2 -87.3,-370.4 -246.3,-476.7 -1769.3,-1183.5 -3583,-2139.8 -5544.6,-2923.7 -59.2,-23.6 -121.8,-35.3 -184.2,-35.3"
         style="fill:#371a45;fill-opacity:1;fill-rule:nonzero;stroke:none"
         transform="matrix(0.13333333,0,0,-0.13333333,0,5332.3467)" />
      <path
         id="path55"
         d="m 16981.4,17281 c 86.2,375.6 191.9,749.3 336.4,1111.6 144.6,361.1 329.7,713.4 582.4,1017.1 45.9,55.2 127.9,62.7 183,16.8 51.4,-42.7 61.4,-116.8 25.6,-171.1 -383.9,-614 -513.9,-1348.2 -587.7,-2062.4 -54.6,-381.4 -608.7,-292.4 -539.7,88"
         style="fill:#371a45;fill-opacity:1;fill-rule:nonzero;stroke:none"
         transform="matrix(0.13333333,0,0,-0.13333333,0,5332.3467)" />
      <path
         id="path56"
         d="m 17866.1,17682.6 c 256.8,809.7 651.5,1553.7 1121.7,2228.4 26.3,37.9 78.4,47.2 116.2,20.8 34.3,-23.9 45.1,-68.9 27.3,-105.3 -354.6,-727.3 -615,-1493.6 -733,-2269.6 -77.2,-384.6 -635,-253.8 -532.2,125.7"
         style="fill:#371a45;fill-opacity:1;fill-rule:nonzero;stroke:none"
         transform="matrix(0.13333333,0,0,-0.13333333,0,5332.3467)" />
      <path
         id="path57"
         d="m 18788.5,18096.2 c 136.3,614.7 405.4,1176 741.5,1671.2 76.1,110.7 248.2,15 194.5,-107.7 -231.5,-528.7 -376.1,-1086.3 -393.9,-1635.6 -34.1,-398.8 -613.2,-322.6 -542.1,72.1"
         style="fill:#371a45;fill-opacity:1;fill-rule:nonzero;stroke:none"
         transform="matrix(0.13333333,0,0,-0.13333333,0,5332.3467)" />
      <path
         id="path58"
         d="m 19536.5,18583.7 c 106.3,358.7 255,689.6 422,1005 167.5,315.1 354.4,614.8 551,905.4 65.7,95.6 214.4,12.2 166.5,-93.5 -142.3,-315 -272.2,-634.3 -378.4,-957.2 -105.9,-322.5 -188.3,-649.9 -225.7,-970.9 -65.3,-390.1 -630.6,-273.7 -535.4,111.2"
         style="fill:#371a45;fill-opacity:1;fill-rule:nonzero;stroke:none"
         transform="matrix(0.13333333,0,0,-0.13333333,0,5332.3467)" />
      <path
         id="path59"
         d="m 20470.1,19040.7 c 340.1,868.1 773.5,1681.2 1229.6,2486.8 22.6,39.9 73.4,53.9 113.3,31.2 36.5,-20.8 51.2,-65.1 36.1,-103.1 -332.6,-841.2 -647.8,-1701.7 -856.9,-2577.5 -106.3,-372.8 -646.3,-206 -522.1,162.6"
         style="fill:#371a45;fill-opacity:1;fill-rule:nonzero;stroke:none"
         transform="matrix(0.13333333,0,0,-0.13333333,0,5332.3467)" />
       <g id="bubbles-2">
        <animateTransform
          attributeName="transform"
          type="translate"
          values="0,0; 0,-700; 0,-700"
          keyTimes="0;0.8;1"
          dur="4s"
          repeatCount="indefinite"
        />
        <animate
          attributeName="opacity"
          values="1; 0; 0"
          keyTimes="0;0.8;1"
          dur="4s"
          begin="0s"
          repeatCount="indefinite"
        />
      <path
         id="path60"
         d="m 11484,23550.7 c -404.9,0 -734.2,329.3 -734.2,734.2 0,404.8 329.3,734.2 734.2,734.2 404.8,0 734.1,-329.4 734.1,-734.2 0,-404.9 -329.3,-734.2 -734.1,-734.2 m -158.9,1222.2 c -88.6,0 -199.3,-54.7 -289.3,-151.8 -132.5,-142.7 -170.2,-323 -84.3,-402.7 27.5,-25.5 64.3,-37.6 106,-37.6 88.6,0 199.3,54.7 289.3,151.7 132.5,142.8 170.2,323.1 84.3,402.8 -27.5,25.5 -64.3,37.6 -106,37.6 m 264.9,124.2 c -53.5,0 -96.9,-43.4 -96.9,-96.9 0,-53.5 43.4,-96.9 96.9,-96.9 53.6,0 96.9,43.4 96.9,96.9 0,53.5 -43.3,96.9 -96.9,96.9"
         style="fill:#9baec0;fill-opacity:1;fill-rule:nonzero;stroke:none"
         transform="matrix(0.13333333,0,0,-0.13333333,0,5332.3467)" />
      <path
         id="path61"
         d="m 11484,25019.1 c -404.9,0 -734.2,-329.4 -734.2,-734.2 0,-404.9 329.3,-734.2 734.2,-734.2 404.8,0 734.1,329.3 734.1,734.2 0,404.8 -329.3,734.2 -734.1,734.2 m 0,-1693.1 c -528.8,0 -958.9,430.2 -958.9,958.9 0,528.7 430.1,958.9 958.9,958.9 528.7,0 958.8,-430.2 958.8,-958.9 0,-528.7 -430.1,-958.9 -958.8,-958.9"
         style="fill:#cffffe;fill-opacity:1;fill-rule:nonzero;stroke:none"
         transform="matrix(0.13333333,0,0,-0.13333333,0,5332.3467)" />
      <path
         id="path62"
         d="m 11057.5,24180.8 c -41.7,0 -78.5,12.1 -106,37.6 -85.9,79.7 -48.2,260 84.3,402.7 90,97.1 200.7,151.8 289.3,151.8 41.7,0 78.5,-12.1 106,-37.6 85.9,-79.7 48.2,-260 -84.3,-402.8 -90,-97 -200.7,-151.7 -289.3,-151.7"
         style="fill:#d7dfe6;fill-opacity:1;fill-rule:nonzero;stroke:none"
         transform="matrix(0.13333333,0,0,-0.13333333,0,5332.3467)" />
      <path
         id="path63"
         d="m 11590,24703.3 c -53.5,0 -96.9,43.4 -96.9,96.9 0,53.5 43.4,96.9 96.9,96.9 53.6,0 96.9,-43.4 96.9,-96.9 0,-53.5 -43.3,-96.9 -96.9,-96.9"
         style="fill:#d7dfe6;fill-opacity:1;fill-rule:nonzero;stroke:none"
         transform="matrix(0.13333333,0,0,-0.13333333,0,5332.3467)" />
         </g>

       <g id="bubbles-1">
        <animateTransform
          attributeName="transform"
          type="translate"
          values="0,0; 0,-700; 0,-700"
          keyTimes="0;0.8;1"
          dur="6s"
          begin="0s"
          repeatCount="indefinite"
        />
        <animate
          attributeName="opacity"
          values="1; 0; 0"
          keyTimes="0;0.8;1"
          dur="6s"
          begin="0s"
          repeatCount="indefinite"
        />
      <path
         id="path64"
         d="m 8526.35,25823 c -547.75,0 -993.39,445.6 -993.39,993.4 0,547.7 445.64,993.4 993.39,993.4 547.75,0 993.36,-445.7 993.36,-993.4 0,-547.8 -445.61,-993.4 -993.36,-993.4 m -214.94,1653.7 c -119.9,0 -269.63,-74 -391.49,-205.4 -179.18,-193.1 -230.23,-437.1 -114,-544.9 37.18,-34.5 86.99,-50.9 143.4,-50.9 119.89,0 269.62,74 391.48,205.4 179.18,193.1 230.23,437.1 114.01,544.9 -37.19,34.5 -87,50.9 -143.4,50.9 m 358.46,168 c -72.42,0 -131.13,-58.7 -131.13,-131.1 0,-72.4 58.71,-131.1 131.13,-131.1 72.41,0 131.12,58.7 131.12,131.1 0,72.4 -58.71,131.1 -131.12,131.1"
         style="fill:#9baec0;fill-opacity:1;fill-rule:nonzero;stroke:none"
         transform="matrix(0.13333333,0,0,-0.13333333,0,5332.3467)" />


        <path
           id="path65"
           d="m 8526.35,27809.8 c -547.75,0 -993.39,-445.7 -993.39,-993.4 0,-547.8 445.64,-993.4 993.39,-993.4 547.75,0 993.36,445.6 993.36,993.4 0,547.7 -445.61,993.4 -993.36,993.4 m 0,-2290.8 C 7811,25519 7229,26101 7229,26816.4 c 0,715.3 582,1297.3 1297.35,1297.3 715.35,0 1297.32,-582 1297.32,-1297.3 0,-715.4 -581.97,-1297.4 -1297.32,-1297.4"
           style="fill:#cffffe;fill-opacity:1;fill-rule:nonzero;stroke:none"
           transform="matrix(0.13333333,0,0,-0.13333333,0,5332.3467)" />
      <path
         id="path66"
         d="m 7949.32,26675.5 c -56.41,0 -106.22,16.4 -143.4,50.9 -116.23,107.8 -65.18,351.8 114,544.9 121.86,131.4 271.59,205.4 391.49,205.4 56.4,0 106.21,-16.4 143.4,-50.9 116.22,-107.8 65.17,-351.8 -114.01,-544.9 -121.86,-131.4 -271.59,-205.4 -391.48,-205.4"
         style="fill:#d7dfe6;fill-opacity:1;fill-rule:nonzero;stroke:none"
         transform="matrix(0.13333333,0,0,-0.13333333,0,5332.3467)" />
      <path
         id="path67"
         d="m 8669.87,27382.5 c -72.42,0 -131.13,58.7 -131.13,131.1 0,72.4 58.71,131.1 131.13,131.1 72.41,0 131.12,-58.7 131.12,-131.1 0,-72.4 -58.71,-131.1 -131.12,-131.1"
         style="fill:#d7dfe6;fill-opacity:1;fill-rule:nonzero;stroke:none"
         transform="matrix(0.13333333,0,0,-0.13333333,0,5332.3467)" />
       </g>
    </g>
  </g>
</svg>
