<?xml version="1.0" encoding="UTF-8" standalone="no"?>
<!-- Created with Inkscape (http://www.inkscape.org/) -->

<svg
   version="1.1"
   id="svg1"
   width="666.66669"
   height="666.66669"
   viewBox="0 0 666.66669 666.66669"
   sodipodi:docname="rm234-binn-18b.eps"
   xmlns:inkscape="http://www.inkscape.org/namespaces/inkscape"
   xmlns:sodipodi="http://sodipodi.sourceforge.net/DTD/sodipodi-0.dtd"
   xmlns="http://www.w3.org/2000/svg"
   xmlns:svg="http://www.w3.org/2000/svg">
  <defs
     id="defs1" />
  <sodipodi:namedview
     id="namedview1"
     pagecolor="#ffffff"
     bordercolor="#000000"
     borderopacity="0.25"
     inkscape:showpageshadow="2"
     inkscape:pageopacity="0.0"
     inkscape:pagecheckerboard="0"
     inkscape:deskcolor="#d1d1d1">
    <inkscape:page
       x="0"
       y="0"
       inkscape:label="1"
       id="page1"
       width="666.66669"
       height="666.66669"
       margin="0"
       bleed="0" />
  </sodipodi:namedview>
  <g
     id="g1"
     inkscape:groupmode="layer"
     inkscape:label="1"
       transform="translate(333.33,333.33)"
     >
      <animateTransform 
        attributeName="transform"
        type="scale"
        values="1 1;1 -1;"
        dur="1s"
        additive="sum"
        repeatCount="indefinite"
        calcMode="discrete"/>
    <g
       id="group-R5"
         transform="translate(-333.33,-333.33)"
       >

      <path
         id="path3"
         d="m 2906.28,2749.85 c -7.59,-4.41 -12.66,-6.99 -17.34,-10.13 -73.7,-49.44 -150.34,-94.01 -227.97,-136.81 -126.43,-69.7 -251.53,-141.51 -369.16,-225.56 -48.42,-34.6 -96.59,-69.55 -144.7,-104.58 -12.83,-9.34 -12.9,-11.72 -3.71,-24.78 17.08,-24.28 27.46,-51.03 31.58,-80.51 4.99,-35.79 -2.37,-69.49 -15.36,-102.46 -7.59,-19.27 -15.41,-38.44 -22.89,-57.74 -5.42,-13.98 -8.61,-28.54 -9.06,-43.53 -0.89,-29.78 15.74,-47.53 45.28,-49 17.14,-0.85 33.54,2.54 49.37,8.63 16.3,6.28 32.35,13.2 48.5,19.87 35.06,14.46 71.1,24.36 109.49,21.54 32.84,-2.43 59.83,-15.44 77.16,-44.88 1.89,-3.2 3.25,-7.2 9.7,-8.49 58.84,74.73 125.94,143.23 197.1,211.31 -23.1,9.03 -41.86,18.71 -59.02,31.44 -43.57,32.34 -66.37,90.88 -54.11,140.62 9.11,36.98 29.1,68.3 56.39,93.56 34.99,32.39 75.94,55.92 122.6,68.45 22.56,6.05 44.39,14.19 64.48,26.37 15.28,9.28 16.25,10.49 7.03,25.71 -22.28,36.82 -17.06,71.38 6.27,105.3 17.1,24.85 39.82,44.09 62.38,63.48 21.05,18.09 34.02,40.13 35.99,72.19"
         style="fill:#ffffff;fill-opacity:1;fill-rule:nonzero;stroke:none"
         transform="matrix(0.13333333,0,0,-0.13333333,0,666.66667)" />
      <path
         id="path4"
         d="m 1721.46,2122.64 c 14.06,51.73 29.34,103.05 53.24,151.34 1.61,3.26 4.29,6.73 1.78,11.04 -5.74,3.59 -11.27,0.53 -16.4,-1.47 -28.94,-11.23 -52.52,-29.19 -70.98,-54.54 -29.69,-40.77 -12.86,-85.29 11.48,-113.41 1.66,-1.92 3.83,-3.48 6,-4.85 6,-3.78 10.96,-3.92 13,4.37 0.61,2.51 1.2,5.03 1.88,7.52"
         style="fill:#d35b30;fill-opacity:1;fill-rule:nonzero;stroke:none"
         transform="matrix(0.13333333,0,0,-0.13333333,0,666.66667)" />
      <path
         id="path5"
         d="m 3716.28,3653.37 c -1.51,0.52 -3.04,1.04 -4.56,1.56 -2.87,-4.11 -6.14,-8.01 -8.55,-12.38 -27.93,-50.77 -63.71,-96.08 -102.58,-138.37 -53.77,-58.5 -108.23,-116.68 -174.83,-161.61 -22.15,-14.94 -21.32,-17.8 -0.68,-34.24 42.79,-34.08 64.46,-78.12 61.05,-133.45 -0.48,-7.74 -1.37,-15.46 -2.24,-23.17 -6.68,-59.03 -25.86,-113.29 -62.22,-160.8 -26.46,-34.57 -57.22,-64.92 -91.7,-91.5 -19.97,-15.39 -40.24,-30.4 -59.79,-46.29 -31.18,-25.34 -43.64,-54.92 -27.65,-95.72 14.67,-37.41 3.75,-58.69 -32.2,-77.99 -17.13,-9.2 -35.21,-16.24 -53.21,-23.51 -22.86,-9.23 -35.63,-26.61 -41.29,-50.25 -5.84,-24.4 1.6,-45.99 12.59,-67.03 12.12,-23.2 17.82,-24.15 37.26,-6.54 0.96,0.86 1.89,1.77 2.81,2.68 43.76,43.09 88.65,84.97 128.38,132.1 37.53,44.55 73.44,90.24 105.96,138.53 91.06,135.22 165.2,279.22 223.24,431.54 44.19,115.98 76.46,234.85 86.7,359.01 1.59,19.11 2.37,38.29 3.51,57.43"
         style="fill:#ffffff;fill-opacity:1;fill-rule:nonzero;stroke:none"
         transform="matrix(0.13333333,0,0,-0.13333333,0,666.66667)" />
      <path
         id="path6"
         d="m 1827.2,2137.66 c -3.09,9.76 0.28,17.67 2.59,25.46 6.68,22.43 16.32,43.67 27.86,63.93 30.17,52.99 65.25,102.63 104.91,148.88 41.82,48.78 93.82,84.91 149.32,116.24 54.17,30.57 109.25,59.23 169.66,75.87 7.06,1.94 12.53,5.52 17.46,11.29 71.01,82.81 154.93,148.15 256.9,188.97 18.11,7.26 36.79,12.31 55.88,15.97 11.48,2.21 23.13,2.55 34.79,1.38 3.28,-0.33 6.87,-1.15 7.9,-4.59 1.45,-4.76 -2.34,-7.01 -5.87,-8.59 -29.56,-13.2 -57.85,-28.94 -86.92,-43.06 -64.67,-31.4 -122.45,-72.46 -173.52,-122.65 -20.19,-19.84 -39.67,-40.91 -54.2,-65.67 -6.58,-11.21 -15.83,-18.44 -28.19,-22.2 -63.45,-19.33 -122.02,-49.74 -181.06,-79.21 -77.92,-38.89 -140.58,-96.39 -197.18,-160.99 -27.24,-31.09 -52.13,-64.29 -73.73,-99.74 -5.72,-9.42 -11.29,-18.85 -15.52,-29.06 -1.9,-4.59 -2.83,-10.18 -11.08,-12.23 z m -92.18,-236.78 c 0.37,-6.02 -1.13,-12.87 4.89,-18.03 6.94,4.56 8.88,11.75 12.03,17.82 56.55,108.8 129.84,205.35 214.84,293.26 30.14,31.17 63.11,59.3 96.29,87.18 76.33,64.16 156.59,123.13 238.72,179.54 109.98,75.57 226.15,141.02 341.83,207.21 100.56,57.52 200.26,116.43 295.1,183.12 17.68,12.43 35.94,24.25 51.91,39.14 -3.11,3.23 -5.79,2.38 -8.18,1.92 -64.44,-12.6 -129.85,-13.49 -195.1,-17.3 -76.34,-4.48 -152,-15.1 -225.89,-35.66 -40.78,-11.35 -76.64,-31.5 -104.23,-64.18 -13.33,-15.79 -25.18,-32.84 -37.41,-49.53 -14.16,-19.33 -29.36,-37.66 -45.78,-55.2 -18.98,-20.28 -40.55,-27.42 -68,-24.03 -31.49,3.88 -63.27,4.2 -94.42,-4.71 -70.66,-20.23 -130.92,-58.59 -183.99,-108.14 -55.44,-51.77 -104.81,-109.18 -148.92,-170.97 -41.19,-57.68 -76.5,-118.38 -97.57,-186.68 -16.27,-52.72 -25.74,-106.94 -36.15,-160.91 -7.24,-37.48 -12.3,-75.42 -9.97,-113.85"
         style="fill:#fff0db;fill-opacity:1;fill-rule:nonzero;stroke:none"
         transform="matrix(0.13333333,0,0,-0.13333333,0,666.66667)" />
      <path
         id="path7"
         d="m 3675.9,3132.7 c -28.22,-70.91 -62.57,-138.88 -98.84,-205.92 -12.5,-23.12 -25.73,-45.85 -38.63,-68.76 0.51,-0.41 1.02,-0.82 1.53,-1.23 12.17,11.12 24.13,22.46 36.54,33.3 49.75,43.47 88.87,95.09 118.28,154.12 8.1,16.27 13.48,33.53 14.91,51.82 1.41,18.1 -3.21,34.56 -13.68,49.34 -6.88,9.69 -10.26,9.25 -15.62,-1.95 -1.68,-3.49 -3.06,-7.13 -4.49,-10.72"
         style="fill:#fff0db;fill-opacity:1;fill-rule:nonzero;stroke:none"
         transform="matrix(0.13333333,0,0,-0.13333333,0,666.66667)" />
      <path
         id="path8"
         d="m 2431.09,1864.31 c 8.46,11.24 8.81,21.26 1.46,33.7 -11.64,19.7 -27.73,29.95 -50.5,30.3 -34.8,0.55 -68.2,-6.23 -100.34,-19.26 -22.18,-8.99 -44.19,-18.39 -67.1,-25.51 -15.71,-4.9 -31.7,-6.35 -47.95,-5.14 -44.36,3.31 -76.73,36.97 -78.56,81.31 -0.92,22.34 3.77,43.79 10.51,64.81 7.9,24.65 16.75,49 24.5,73.68 13.5,43.05 4.64,83.13 -17.81,120.93 -7.48,12.6 -9.78,13.39 -20.77,4.52 -21.11,-17.03 -41.84,-34.6 -61.95,-52.8 -33.62,-30.45 -62.71,-65.31 -92.86,-99.04 -21.5,-24.06 -40.19,-50.61 -60.41,-75.82 -6.8,-8.48 -7.1,-15.82 0.5,-23.99 8.8,-9.45 16.27,-20.2 25.51,-29.18 16.92,-16.45 30.1,-35.33 41.01,-56.13 10.25,-19.53 19.24,-39.63 27.07,-60.15 23.64,-61.93 16.71,-120.48 -21.08,-175.21 -19.31,-27.98 -45.46,-49.46 -66.89,-71.43 -20.68,-19.12 -38.8,-36.72 -55.39,-55.75 -20.12,-23.09 -36.94,-48.21 -45.69,-78.1 -12.01,-41.05 1.68,-72.85 40.05,-91.8 5.8,-2.86 12.04,-4.87 17.68,-7.99 15.85,-8.79 18.5,-23.37 6.73,-36.96 -2.92,-3.37 -6.9,-5.81 -10.28,-8.8 -28.06,-24.82 -58.13,-47.52 -80.12,-78.61 -16.03,-22.65 -28.26,-46.42 -27.15,-75.14 0.77,-19.92 8.22,-36.54 24.84,-48.17 34.12,-23.84 71.71,-35.29 113.56,-30.84 32.65,3.47 62.42,16.3 92.39,28.51 4.32,1.76 7.61,4.81 10.49,8.38 15.86,19.61 32.45,38.67 47.45,58.91 64.56,87.11 117.65,181.17 164.95,278.45 60.93,125.32 127.64,247.13 210.43,359.61 15.33,20.83 30.17,42.03 45.72,62.71"
         style="fill:#d35b30;fill-opacity:1;fill-rule:nonzero;stroke:none"
         transform="matrix(0.13333333,0,0,-0.13333333,0,666.66667)" />
      <path
         id="path9"
         d="m 1127.15,1579.3 c 26.33,9.62 51.12,21.85 70.36,43.23 15.81,17.57 22.45,37.64 17.09,60.88 -3.05,13.21 -6.82,26.29 -10.79,39.27 -5.88,19.22 -10.49,38.66 -13.01,58.64 -6.31,50.09 7.74,93.5 42.42,130.03 18.71,19.7 38.66,38.13 59.04,56.15 61.7,54.53 87.72,121.83 69.36,203.57 -7.73,34.43 -24.85,65.19 -41.96,95.66 -8.28,14.74 -11.32,14.49 -23.33,1.77 -14.56,-17.6 -29.77,-36.06 -45.07,-54.45 -57.93,-69.66 -112.07,-142.2 -163.26,-216.9 -69.28,-101.1 -128.004,-208.19 -178.641,-319.78 -19.015,-41.91 -35.218,-84.83 -48.539,-128.85 -4.058,-13.4 -1.996,-16.56 11.782,-16.8 10.957,-0.21 21.945,1.11 32.918,1.83 75.984,5.01 150.02,19.59 221.63,45.75"
         style="fill:#d35b30;fill-opacity:1;fill-rule:nonzero;stroke:none"
         transform="matrix(0.13333333,0,0,-0.13333333,0,666.66667)" />
      <path
         id="path10"
         d="m 2329.23,1597.74 c -2.34,-4.12 -6.59,-8.25 -3.82,-14.17 7.83,-0.76 13.57,4.13 19.84,7.06 93.72,44.01 187.26,88.41 282.68,128.69 27.42,11.57 54.9,23.01 82.49,34.18 4.88,1.97 12,7.09 15.24,0.17 2.77,-5.91 -4.75,-9.71 -9.25,-12.9 -12.14,-8.6 -24.35,-17.15 -36.96,-25.02 -55,-34.31 -112.98,-63.05 -171.45,-90.82 -68.97,-32.76 -138.07,-65.24 -207.15,-97.76 -7.15,-3.37 -13.76,-7.09 -17.45,-14.6 -6.82,-13.89 -13.82,-27.69 -21.45,-42.95 9.87,-3.85 16.65,-0.58 23.39,0.79 66.6,13.49 133.06,27.69 199.75,40.73 46.36,9.07 92.84,17.61 139.72,23.62 5.76,0.74 11.67,2.33 17.3,0.25 4.54,-1.69 5.81,-5.64 1.81,-8.87 -3.43,-2.77 -7.8,-4.57 -11.99,-6.18 -18.1,-6.98 -36.12,-14.26 -54.49,-20.51 -107.39,-36.53 -216.86,-65.22 -328.42,-85.79 -11.17,-2.06 -19.54,-5.8 -23.39,-17.08 -1.24,-3.64 -3.43,-6.95 -5.07,-10.48 -6.96,-14.99 -6.5,-17.46 5.19,-28.68 18.6,-17.86 41.91,-25.37 66.5,-29.18 49.93,-7.72 99.41,-3.87 148.38,7.72 48.94,11.58 93.72,33.53 137.91,56.64 65.08,34.02 126,74.06 178.47,126 23.91,23.69 47.37,47.69 68.9,73.67 32.88,39.69 60.28,82.48 79.13,130.53 9.8,24.99 16.28,51 12.72,77.82 -8.84,66.92 -39.87,89.72 -93.5,89.64 -18.12,-0.03 -36.24,0.41 -54.29,-1.95 -61.79,-8.09 -119.63,-28.31 -173.76,-58.55 -57.04,-31.88 -113.17,-65.39 -169.76,-98.07 -12.61,-7.29 -22.82,-17.02 -30.96,-28.91 -23.41,-34.18 -45.81,-69 -66.26,-105.04"
         style="fill:#fff0db;fill-opacity:1;fill-rule:nonzero;stroke:none"
         transform="matrix(0.13333333,0,0,-0.13333333,0,666.66667)" />
      <path
         id="path11"
         d="m 3393.66,3395 c -19.4,2.79 -37.64,0.1 -55.71,-4.97 -63.42,-17.78 -101.83,-66.59 -141.33,-114.3 66.66,38.08 133.13,76.31 197.04,119.27"
         style="fill:#fff0db;fill-opacity:1;fill-rule:nonzero;stroke:none"
         transform="matrix(0.13333333,0,0,-0.13333333,0,666.66667)" />
      <path
         id="path12"
         d="m 1146.44,2493.44 c -5.83,-63.2 7.86,-120.66 40.32,-174.43 6.47,-10.72 14.73,-19.74 24.95,-26.76 12.71,-8.72 23.32,-5.49 29.94,8.23 2.45,5.09 1.22,10.15 0.5,15.21 -2.77,19.33 -2.7,38.78 -1.48,58.14 5.59,88.52 14.71,176.67 30.32,264.04 6.48,36.3 12.95,72.66 24.14,107.9 2.01,6.31 1.96,17.64 10.2,16.47 9.8,-1.4 5.07,-12.62 6.08,-19.66 0.65,-4.44 0.28,-9.04 0.17,-13.57 -0.78,-31.04 -1.6,-62.08 -2.42,-93.12 -1.6,-60.16 -4.81,-120.23 -9.9,-180.2 -2.84,-33.46 -4.95,-66.98 -7.39,-100.48 16.69,12.91 34.24,23.12 39.97,44.46 25.87,96.36 59.5,190.12 96.38,282.76 9.57,24.04 19.42,47.97 29.21,71.93 1.41,3.46 2.82,8.35 7.65,6.66 4.65,-1.64 3.17,-6.53 2.34,-10.22 -3.12,-13.89 -6.36,-27.75 -9.71,-41.58 -21.16,-87.47 -48.46,-173.19 -73.74,-259.49 -1.26,-4.31 -4.49,-8.81 -0.99,-14.91 15.79,13.42 29.96,26.74 45.5,38.22 10.87,8.01 18.08,17.9 24.19,29.54 19.82,37.81 40.08,75.39 60.26,113.02 21.72,40.5 43.67,80.93 57.13,125.15 12.35,40.61 19.46,81.88 11.44,124.39 -2.76,14.65 -5.53,29.79 -15.97,41.12 -46.35,50.3 -93,66.03 -152.37,38.83 -8.22,-3.77 -16.39,-7.76 -24.25,-12.23 -58.23,-33.08 -101.54,-81.58 -138.45,-136.19 -61.92,-91.61 -93.9,-193.45 -104.02,-303.23"
         style="fill:#fff0db;fill-opacity:1;fill-rule:nonzero;stroke:none"
         transform="matrix(0.13333333,0,0,-0.13333333,0,666.66667)" />
      <path
         id="path13"
         d="m 3744.62,3886.21 c 5.72,-35.22 7.73,-70.71 6.44,-106.39 -0.23,-6.46 -1.14,-13.14 0.08,-19.35 5.6,-28.55 11.62,-57.01 17.95,-85.4 2.7,-12.11 5.57,-12.64 14.87,-3.56 4.62,4.52 8.95,9.36 13.15,14.28 21.02,24.55 42.7,48.58 62.69,73.95 18.08,22.94 39.26,42.94 58.01,65.24 22.45,26.7 46.79,51.84 70.7,77.3 4.45,4.73 9.86,14.09 17.01,8.51 6.93,-5.42 -0.74,-13.02 -3.88,-18.8 -17.26,-31.89 -37.06,-62.21 -57.01,-92.46 -42.8,-64.9 -89.4,-127.01 -142.84,-183.4 -18.02,-19.01 -31.38,-36.59 -26.88,-63.92 1.22,-7.44 -0.92,-15.44 -1.47,-23.18 -0.36,-5.16 -0.76,-10.32 -0.96,-15.49 -0.32,-8.55 3.78,-10.23 10.95,-6.77 9.89,4.8 19.79,9.58 29.66,14.44 47.27,23.28 91.26,51.42 129.21,88.29 32.03,31.1 63.79,62.42 91.37,97.73 36.71,47 70.29,95.93 96.23,149.87 31.53,65.55 49.61,134.76 54.98,207.02 3.82,51.34 -3.33,100.82 -35.48,143.73 -20.06,26.78 -47.11,39.96 -80.18,39.44 -21.5,-0.35 -41.96,-6.27 -61.77,-15.2 -65.33,-29.45 -115.66,-77.6 -162.23,-130.13 -22.35,-25.22 -45.89,-49.15 -69.64,-72.97 -2.28,-2.29 -4.69,-4.49 -7.26,-6.43 -8.22,-6.22 -17.26,-9.26 -27.2,-4.81 -10.08,4.51 -13.74,13.4 -13.7,23.75 0.03,8.38 0.65,16.81 1.73,25.13 3.58,27.66 4.85,55.37 4.04,83.26 -2.15,74.35 -55.19,123.31 -113.94,136.99 -45.19,10.51 -87.39,1.77 -127.16,-20.67 -65.65,-37.05 -111.03,-91.76 -139.27,-161.21 -28.01,-68.85 -39.02,-140.84 -36.53,-214.62 5.04,-148.86 68.49,-267.2 190.17,-353.36 34.92,-24.72 22.03,-22.32 51.33,6.36 7.84,7.66 8.25,14.79 2.97,24.07 -10.34,18.16 -16.01,38.16 -20.19,58.48 -9.27,44.99 -18.85,89.94 -26.91,135.15 -8.86,49.66 -17.07,99.52 -16.39,150.23 0.1,8.56 -3.93,21.92 5.79,24.32 12.09,2.98 12.99,-11.83 16.63,-19.81 25.3,-55.47 41.24,-114.3 60.57,-171.89 12.15,-36.18 22.67,-72.89 34.08,-109.32 1.3,-4.19 1.65,-9.03 7.91,-13.51 25.17,32.36 45.13,66.82 62.21,103.11 9.73,20.68 16.01,42.04 18.72,64.85 3.98,33.45 12.21,66.15 21.63,98.46 1.85,6.3 2.14,16.58 11.06,15.98 8.94,-0.59 7.68,-10.77 8.75,-17.29"
         style="fill:#fff0db;fill-opacity:1;fill-rule:nonzero;stroke:none"
         transform="matrix(0.13333333,0,0,-0.13333333,0,666.66667)" />
      <path
         id="path14"
         d="m 1680.66,2572.84 c 4.58,-2.36 9.43,-4.32 14.33,-5.95 25.89,-8.56 52.53,-13.99 79.56,-17.17 40.75,-4.81 78.62,2.9 111.99,28 7.76,5.83 15.32,11.92 22.94,17.92 22.13,17.43 23.76,23.12 14.12,49.31 -12.85,34.9 -3.63,57.6 30.84,71.67 19.12,7.8 39.08,13.68 58.88,19.68 33.17,10.06 63.37,26.14 92.03,45.15 17.73,11.75 31.91,27.36 47.42,45.97 -11.97,1.95 -17.28,-2.47 -23,-4.97 -33.79,-14.78 -67.45,-29.85 -101.14,-44.86 -113.62,-50.6 -224.74,-105.9 -328.78,-174.55 -7.02,-4.63 -14.39,-8.78 -21.15,-13.74 -9.33,-6.85 -8.78,-10.94 1.96,-16.46"
         style="fill:#d35b30;fill-opacity:1;fill-rule:nonzero;stroke:none"
         transform="matrix(0.13333333,0,0,-0.13333333,0,666.66667)" />
      <path
         id="path15"
         d="m 3022.8,3095.44 c -9.54,-9.93 -16.86,-21.35 -22.2,-33.92 -9.89,-23.29 -17.41,-47.35 -22.1,-72.25 -1.33,-7.02 -2.15,-14.11 -0.41,-21.19 2.65,-10.8 7.19,-13.77 18.1,-11.83 2.54,0.45 5.04,1.18 7.51,1.96 52.29,16.54 107.31,25 155.81,52.82 7.45,4.27 16.21,7.24 22.59,-1.76 5.44,-7.67 1.76,-15.06 -3.73,-21.08 -6.62,-7.27 -11.21,-15.78 -16.26,-24.05 -11.89,-19.45 -26.07,-37.1 -43.3,-52 -48.94,-42.32 -98.99,-83.31 -152.59,-119.56 -13.8,-9.33 -19.75,-19.26 -16.83,-35.09 0.36,-1.9 0.3,-3.87 0.4,-5.81 2.17,-36.23 -9.2,-67.58 -34.54,-93.55 -15.8,-16.19 -31.3,-32.75 -49.54,-46.38 -11.12,-8.31 -18.72,-19.75 -25.61,-31.4 -8.52,-14.41 -8.83,-29.3 -0.08,-44.22 5.22,-8.9 10.34,-18.03 14,-27.63 6.93,-18.13 2.71,-32.51 -12.14,-45.18 -8.42,-7.2 -18.25,-12.24 -28.23,-16.87 -23.56,-10.94 -48.23,-18.69 -73.35,-25.1 -43.38,-11.07 -82.95,-29.13 -114.5,-62.1 -6.51,-7.2 -13.56,-13.98 -19.43,-21.66 -25.11,-32.81 -37.07,-68.54 -19.35,-108.67 16.72,-37.88 48.15,-59.64 85.65,-73.95 16.29,-6.21 29.91,-2.07 42.71,9.2 51.46,45.32 105.93,86.99 159.5,129.71 78.37,62.47 157.62,123.82 233.98,188.77 10.42,8.85 10.65,9.11 2.62,20.12 -16.72,22.97 -27.35,48.29 -30.06,76.72 -4.61,48.41 19.01,87.96 63.66,106.5 8.95,3.72 18.18,6.81 27.07,10.7 9.46,4.14 19.09,8.18 27.89,13.52 13.66,8.27 16.39,15.8 12.52,31.07 -1.9,7.51 -4.63,14.82 -7.05,22.19 -9.73,29.55 -5.8,57.52 10.17,83.86 10.47,17.25 23.13,32.76 38.83,45.59 22.03,18.01 44.5,35.49 66.07,54.03 73.97,63.57 119.54,141.83 123.54,241.35 0.83,20.59 -3.01,39.58 -14.25,57.33 -13.03,20.58 -31.25,36.1 -48.29,52.84 -5.45,5.35 -11.22,5.56 -17.47,1.28 -3.72,-2.56 -7.78,-4.63 -11.54,-7.15 -78.11,-52.42 -160.78,-96.53 -246.53,-134.99 -32.44,-14.56 -58.92,-36.85 -83.24,-62.17"
         style="fill:#d35b30;fill-opacity:1;fill-rule:nonzero;stroke:none"
         transform="matrix(0.13333333,0,0,-0.13333333,0,666.66667)" />
      <path
         id="path16"
         d="m 954.863,1285.6 c 1.52,-2.81 2.614,-5.98 3.219,-9.11 8.07,-41.92 -1.758,-79.16 -29.012,-111.74 -8.047,-8.23 -17.113,-14.15 -28.035,-17.09 -22.543,-6.08 -43.347,5.04 -50.668,27.08 -2.472,7.43 -3.277,15.1 -3.332,22.9 -0.18,26.12 5.051,51.34 12.903,76.07 1.933,6.08 4.968,11.94 8.238,17.47 9.851,16.7 23.988,27.36 44.058,26.55 21.184,-0.85 33.317,-14.98 42.629,-32.13 z M 1498.39,890.129 c 19.92,-0.059 36.86,-8.25 44.38,-28.289 7.34,-19.539 1.94,-36.899 -12.76,-51.199 -30.19,-29.36 -67.52,-42.77 -108.63,-43.481 -36.58,-0.64 -55.64,34.82 -38.04,67.102 3.76,6.879 8.93,12.59 14.39,18.187 28.45,26.133 62.63,37.781 100.66,37.68 z M 1344.15,2293.48 c 19.96,-29.56 36.56,-61 51.85,-93.13 7.84,-16.47 13.27,-33.89 14.67,-52.09 6.58,-85.6 -18.51,-158.06 -88.3,-212.13 -23.49,-18.21 -46.58,-36.92 -67.55,-58.25 -21.33,-21.7 -30.88,-47.25 -30.11,-77.18 0.61,-23.47 5.32,-46.22 12.13,-68.6 3.57,-11.76 7.46,-23.47 10.21,-35.42 11.71,-50.95 -4.97,-93.42 -48.07,-123.18 -15.53,-10.73 -32.31,-18.92 -50.17,-25.12 -56.07,-19.42 -114.39,-27.64 -172.912,-34.42 -37.238,-4.31 -74.582,-8.6 -112.191,-7.92 -15.523,0.27 -15.914,0.84 -20.059,-13.82 -9.847,-34.9 -18.73,-69.93 -21.246,-106.39 -2.265,-32.91 -5.839,-65.74 -9.507,-98.54 -8.071,-72.2 -4.008,-143.78 15,-213.74 25.324,-93.21 63.585,-180.558 126.972,-255.038 34.813,-40.91 75.193,-74.653 125.323,-95.621 54.07,-22.621 110.66,-25.559 167.91,-20.172 99.44,9.351 194.39,35.781 285.54,76.672 72.28,32.449 141.3,69.89 203.88,119.078 41.22,32.39 80.75,66.691 120.36,100.922 12.95,11.209 24.41,24.149 36.72,36.449 -1.55,0.97 -2.12,1.61 -2.55,1.53 -3.79,-0.72 -7.54,-1.62 -11.32,-2.38 -49.99,-10.03 -97.9,-5.52 -142.6,20.7 -14.01,8.23 -26.95,17.56 -36.37,31.42 -28.75,42.26 -27.22,97.9 4.42,143.97 19.62,28.57 45.31,51.32 70.98,74.08 2.42,2.13 5.31,3.76 7.67,5.93 8.03,7.41 8,10.07 -0.04,16.69 -1.99,1.64 -4.37,2.81 -6.35,4.46 -37.56,31.21 -54.05,69.79 -42.47,118.77 6.51,27.54 18.67,52.29 34.58,75.4 18.41,26.73 40.18,50.61 62.84,73.77 28.55,29.18 55.46,59.83 76.57,94.95 19.87,33.06 26.75,68.95 16.03,106.33 -7.84,27.35 -18.96,53.86 -34.58,77.82 -13.43,20.59 -30.18,38.77 -47.43,56.29 -8.09,8.21 -11.54,7.64 -19.08,-0.89 -2.55,-2.89 -4.51,-6.3 -6.74,-9.48 -16.67,-23.86 -33.27,-47.78 -50.02,-71.58 -8.98,-12.77 -19.64,-24.17 -31.67,-34.01 -15.76,-12.9 -32.72,-8.11 -40.56,10.77 -1.23,2.97 -2.27,6.1 -2.82,9.26 -6.71,39 -11.57,78.07 -6.19,117.76 4.18,30.8 9.71,61.35 16.43,91.69 2.98,13.5 6.87,18.07 -11.24,25.57 -8.4,3.47 -16.01,9.07 -21.51,16.25 -43.14,56.2 -50.07,115.23 1.55,172.1 30.72,33.85 67.78,55.7 114.02,59.9 11.26,1.02 18.65,6.13 24.51,16.11 10.45,17.85 21.9,35.15 33.81,52.06 32.81,46.62 69.85,89.68 108.02,132.04 46.86,52.01 99.73,95.78 160.57,130.01 58.71,33.04 121.07,53 189.24,47.08 21.54,-1.87 35.84,6.08 47.92,22.24 13.94,18.64 28.11,37.12 42.59,55.34 39.92,50.25 87.31,90.05 151.02,106.65 16.9,4.4 33.82,8.79 50.8,12.84 93.49,22.27 188.81,31.39 284.27,39.56 20.62,1.76 41.16,4.47 61.73,6.82 6.24,0.72 12.09,2.17 9.33,10.69 -8.9,27.38 -1.4,53.7 4.76,80.22 5.83,25.1 16.16,48.3 31.95,73.23 -18.96,-6.64 -34.02,-12.21 -49.28,-17.2 -121.16,-39.63 -242.95,-77.22 -365.21,-113.3 -67.64,-19.96 -134.89,-41.23 -202.05,-62.75 -56.08,-17.98 -111.29,-38.42 -165.84,-60.68 -9.56,-3.91 -14.41,-8.18 -13.17,-19.77 1.88,-17.67 -5.35,-32.98 -17.83,-45.48 -41.02,-41.11 -89.52,-69.87 -144.97,-86.82 -17.94,-5.48 -36.37,-9.42 -54.12,-15.4 -19.84,-6.69 -21.03,-10.94 -11.77,-29.58 16.47,-33.15 13.05,-54.12 -12.61,-80.74 -50.98,-52.89 -112.8,-76.5 -185.98,-68.08 -40.9,4.71 -80.05,15.48 -114.2,39.94 -15.51,11.12 -15.57,11.4 -31.89,-0.15 -50.16,-35.5 -98.87,-72.85 -145.72,-112.69 -43.39,-36.91 -85.75,-74.86 -125.63,-115.52 -11.69,-11.92 -11.57,-12.3 -2.25,-26.1"
         style="fill:#ffffff;fill-opacity:1;fill-rule:nonzero;stroke:none"
         transform="matrix(0.13333333,0,0,-0.13333333,0,666.66667)" />
      <path
         id="path17"
         d="m 1388.91,2932.86 c 7.86,4.47 16.03,8.46 24.25,12.23 59.37,27.2 106.02,11.47 152.37,-38.83 10.44,-11.33 13.21,-26.47 15.97,-41.12 8.02,-42.51 0.91,-83.78 -11.44,-124.39 -13.46,-44.22 -35.41,-84.65 -57.13,-125.15 -20.18,-37.63 -40.44,-75.21 -60.26,-113.02 -6.11,-11.64 -13.32,-21.53 -24.19,-29.54 -15.54,-11.48 -29.71,-24.8 -45.5,-38.22 -3.5,6.1 -0.27,10.6 0.99,14.91 25.28,86.3 52.58,172.02 73.74,259.49 3.35,13.83 6.59,27.69 9.71,41.58 0.83,3.69 2.31,8.58 -2.34,10.22 -4.83,1.69 -6.24,-3.2 -7.65,-6.66 -9.79,-23.96 -19.64,-47.89 -29.21,-71.93 -36.88,-92.64 -70.51,-186.4 -96.38,-282.76 -5.73,-21.34 -23.28,-31.55 -39.97,-44.46 2.44,33.5 4.55,67.02 7.39,100.48 5.09,59.97 8.3,120.04 9.9,180.2 0.82,31.04 1.64,62.08 2.42,93.12 0.11,4.53 0.48,9.13 -0.17,13.57 -1.01,7.04 3.72,18.26 -6.08,19.66 -8.24,1.17 -8.19,-10.16 -10.2,-16.47 -11.19,-35.24 -17.66,-71.6 -24.14,-107.9 -15.61,-87.37 -24.73,-175.52 -30.32,-264.04 -1.22,-19.36 -1.29,-38.81 1.48,-58.14 0.72,-5.06 1.95,-10.12 -0.5,-15.21 -6.62,-13.72 -17.23,-16.95 -29.94,-8.23 -10.22,7.02 -18.48,16.04 -24.95,26.76 -32.46,53.77 -46.15,111.23 -40.32,174.43 10.12,109.78 42.1,211.62 104.02,303.23 36.91,54.61 80.22,103.11 138.45,136.19 z m 83.12,-497.76 c 46.85,39.84 95.56,77.19 145.72,112.69 16.32,11.55 16.38,11.27 31.89,0.15 34.15,-24.46 73.3,-35.23 114.2,-39.94 73.18,-8.42 135,15.19 185.98,68.08 25.66,26.62 29.08,47.59 12.61,80.74 -9.26,18.64 -8.07,22.89 11.77,29.58 17.75,5.98 36.18,9.92 54.12,15.4 55.45,16.95 103.95,45.71 144.97,86.82 12.48,12.5 19.71,27.81 17.83,45.48 -1.24,11.59 3.61,15.86 13.17,19.77 54.55,22.26 109.76,42.7 165.84,60.68 67.16,21.52 134.41,42.79 202.05,62.75 122.26,36.08 244.05,73.67 365.21,113.3 15.26,4.99 30.32,10.56 49.28,17.2 -15.79,-24.93 -26.12,-48.13 -31.95,-73.23 -6.16,-26.52 -13.66,-52.84 -4.76,-80.22 2.76,-8.52 -3.09,-9.97 -9.33,-10.69 -20.57,-2.35 -41.11,-5.06 -61.73,-6.82 -95.46,-8.17 -190.78,-17.29 -284.27,-39.56 -16.98,-4.05 -33.9,-8.44 -50.8,-12.84 -63.71,-16.6 -111.1,-56.4 -151.02,-106.65 -14.48,-18.22 -28.65,-36.7 -42.59,-55.34 -12.08,-16.16 -26.38,-24.11 -47.92,-22.24 -68.17,5.92 -130.53,-14.04 -189.24,-47.08 -60.84,-34.23 -113.71,-78 -160.57,-130.01 -38.17,-42.36 -75.21,-85.42 -108.02,-132.04 -11.91,-16.91 -23.36,-34.21 -33.81,-52.06 -5.86,-9.98 -13.25,-15.09 -24.51,-16.11 -46.24,-4.2 -83.3,-26.05 -114.02,-59.9 -51.62,-56.87 -44.69,-115.9 -1.55,-172.1 5.5,-7.18 13.11,-12.78 21.51,-16.25 18.11,-7.5 14.22,-12.07 11.24,-25.57 -6.72,-30.34 -12.25,-60.89 -16.43,-91.69 -5.38,-39.69 -0.52,-78.76 6.19,-117.76 0.55,-3.16 1.59,-6.29 2.82,-9.26 7.84,-18.88 24.8,-23.67 40.56,-10.77 12.03,9.84 22.69,21.24 31.67,34.01 16.75,23.8 33.35,47.72 50.02,71.58 2.23,3.18 4.19,6.59 6.74,9.48 7.54,8.53 10.99,9.1 19.08,0.89 17.25,-17.52 34,-35.7 47.43,-56.29 15.62,-23.96 26.74,-50.47 34.58,-77.82 10.72,-37.38 3.84,-73.27 -16.03,-106.33 -21.11,-35.12 -48.02,-65.77 -76.57,-94.95 -22.66,-23.16 -44.43,-47.04 -62.84,-73.77 -15.91,-23.11 -28.07,-47.86 -34.58,-75.4 -11.58,-48.98 4.91,-87.56 42.47,-118.77 1.98,-1.65 4.36,-2.82 6.35,-4.46 8.04,-6.62 8.07,-9.28 0.04,-16.69 -2.36,-2.17 -5.25,-3.8 -7.67,-5.93 -25.67,-22.76 -51.36,-45.51 -70.98,-74.08 -31.64,-46.07 -33.17,-101.71 -4.42,-143.97 9.42,-13.86 22.36,-23.19 36.37,-31.42 44.7,-26.22 92.61,-30.73 142.6,-20.7 3.78,0.76 7.53,1.66 11.32,2.38 0.43,0.08 1,-0.56 2.55,-1.53 -12.31,-12.3 -23.77,-25.24 -36.72,-36.449 -39.61,-34.231 -79.14,-68.532 -120.36,-100.922 -62.58,-49.188 -131.6,-86.629 -203.88,-119.078 -91.15,-40.891 -186.1,-67.321 -285.54,-76.672 -57.25,-5.387 -113.84,-2.449 -167.91,20.172 -50.13,20.968 -90.51,54.711 -125.323,95.621 -63.387,74.48 -101.648,161.828 -126.972,255.038 -19.008,69.96 -23.071,141.54 -15,213.74 3.668,32.8 7.242,65.63 9.507,98.54 2.516,36.46 11.399,71.49 21.246,106.39 4.145,14.66 4.536,14.09 20.059,13.82 37.609,-0.68 74.953,3.61 112.191,7.92 58.522,6.78 116.842,15 172.912,34.42 17.86,6.2 34.64,14.39 50.17,25.12 43.1,29.76 59.78,72.23 48.07,123.18 -2.75,11.95 -6.64,23.66 -10.21,35.42 -6.81,22.38 -11.52,45.13 -12.13,68.6 -0.77,29.93 8.78,55.48 30.11,77.18 20.97,21.33 44.06,40.04 67.55,58.25 69.79,54.07 94.88,126.53 88.3,212.13 -1.4,18.2 -6.83,35.62 -14.67,52.09 -15.29,32.13 -31.89,63.57 -51.85,93.13 -9.32,13.8 -9.44,14.18 2.25,26.1 39.88,40.66 82.24,78.61 125.63,115.52 z m 206.67,154.2 c 6.76,4.96 14.13,9.11 21.15,13.74 104.04,68.65 215.16,123.95 328.78,174.55 33.69,15.01 67.35,30.08 101.14,44.86 5.72,2.5 11.03,6.92 23,4.97 -15.51,-18.61 -29.69,-34.22 -47.42,-45.97 -28.66,-19.01 -58.86,-35.09 -92.03,-45.15 -19.8,-6 -39.76,-11.88 -58.88,-19.68 -34.47,-14.07 -43.69,-36.77 -30.84,-71.67 9.64,-26.19 8.01,-31.88 -14.12,-49.31 -7.62,-6 -15.18,-12.09 -22.94,-17.92 -33.37,-25.1 -71.24,-32.81 -111.99,-28 -27.03,3.18 -53.67,8.61 -79.56,17.17 -4.9,1.63 -9.75,3.59 -14.33,5.95 -10.74,5.52 -11.29,9.61 -1.96,16.46 z m 1659.25,800.73 c 18.07,5.07 36.31,7.76 55.71,4.97 -63.91,-42.96 -130.38,-81.19 -197.04,-119.27 39.5,47.71 77.91,96.52 141.33,114.3 z m 14.62,-97.43 c 3.76,2.52 7.82,4.59 11.54,7.15 6.25,4.28 12.02,4.07 17.47,-1.28 17.04,-16.74 35.26,-32.26 48.29,-52.84 11.24,-17.75 15.08,-36.74 14.25,-57.33 -4,-99.52 -49.57,-177.78 -123.54,-241.35 -21.57,-18.54 -44.04,-36.02 -66.07,-54.03 -15.7,-12.83 -28.36,-28.34 -38.83,-45.59 -15.97,-26.34 -19.9,-54.31 -10.17,-83.86 2.42,-7.37 5.15,-14.68 7.05,-22.19 3.87,-15.27 1.14,-22.8 -12.52,-31.07 -8.8,-5.34 -18.43,-9.38 -27.89,-13.52 -8.89,-3.89 -18.12,-6.98 -27.07,-10.7 -44.65,-18.54 -68.27,-58.09 -63.66,-106.5 2.71,-28.43 13.34,-53.75 30.06,-76.72 8.03,-11.01 7.8,-11.27 -2.62,-20.12 -76.36,-64.95 -155.61,-126.3 -233.98,-188.77 -53.57,-42.72 -108.04,-84.39 -159.5,-129.71 -12.8,-11.27 -26.42,-15.41 -42.71,-9.2 -37.5,14.31 -68.93,36.07 -85.65,73.95 -17.72,40.13 -5.76,75.86 19.35,108.67 5.87,7.68 12.92,14.46 19.43,21.66 31.55,32.97 71.12,51.03 114.5,62.1 25.12,6.41 49.79,14.16 73.35,25.1 9.98,4.63 19.81,9.67 28.23,16.87 14.85,12.67 19.07,27.05 12.14,45.18 -3.66,9.6 -8.78,18.73 -14,27.63 -8.75,14.92 -8.44,29.81 0.08,44.22 6.89,11.65 14.49,23.09 25.61,31.4 18.24,13.63 33.74,30.19 49.54,46.38 25.34,25.97 36.71,57.32 34.54,93.55 -0.1,1.94 -0.04,3.91 -0.4,5.81 -2.92,15.83 3.03,25.76 16.83,35.09 53.6,36.25 103.65,77.24 152.59,119.56 17.23,14.9 31.41,32.55 43.3,52 5.05,8.27 9.64,16.78 16.26,24.05 5.49,6.02 9.17,13.41 3.73,21.08 -6.38,9 -15.14,6.03 -22.59,1.76 -48.5,-27.82 -103.52,-36.28 -155.81,-52.82 -2.47,-0.78 -4.97,-1.51 -7.51,-1.96 -10.91,-1.94 -15.45,1.03 -18.1,11.83 -1.74,7.08 -0.92,14.17 0.41,21.19 4.69,24.9 12.21,48.96 22.1,72.25 5.34,12.57 12.66,23.99 22.2,33.92 24.32,25.32 50.8,47.61 83.24,62.17 85.75,38.46 168.42,82.57 246.53,134.99 z m 372.24,594.92 c -9.42,-32.31 -17.65,-65.01 -21.63,-98.46 -2.71,-22.81 -8.99,-44.17 -18.72,-64.85 -17.08,-36.29 -37.04,-70.75 -62.21,-103.11 -6.26,4.48 -6.61,9.32 -7.91,13.51 -11.41,36.43 -21.93,73.14 -34.08,109.32 -19.33,57.59 -35.27,116.42 -60.57,171.89 -3.64,7.98 -4.54,22.79 -16.63,19.81 -9.72,-2.4 -5.69,-15.76 -5.79,-24.32 -0.68,-50.71 7.53,-100.57 16.39,-150.23 8.06,-45.21 17.64,-90.16 26.91,-135.15 4.18,-20.32 9.85,-40.32 20.19,-58.48 5.28,-9.28 4.87,-16.41 -2.97,-24.07 -29.3,-28.68 -16.41,-31.08 -51.33,-6.36 -121.68,86.16 -185.13,204.5 -190.17,353.36 -2.49,73.78 8.52,145.77 36.53,214.62 28.24,69.45 73.62,124.16 139.27,161.21 39.77,22.44 81.97,31.18 127.16,20.67 58.75,-13.68 111.79,-62.64 113.94,-136.99 0.81,-27.89 -0.46,-55.6 -4.04,-83.26 -1.08,-8.32 -1.7,-16.75 -1.73,-25.13 -0.04,-10.35 3.62,-19.24 13.7,-23.75 9.94,-4.45 18.98,-1.41 27.2,4.81 2.57,1.94 4.98,4.14 7.26,6.43 23.75,23.82 47.29,47.75 69.64,72.97 46.57,52.53 96.9,100.68 162.23,130.13 19.81,8.93 40.27,14.85 61.77,15.2 33.07,0.52 60.12,-12.66 80.18,-39.44 32.15,-42.91 39.3,-92.39 35.48,-143.73 -5.37,-72.26 -23.45,-141.47 -54.98,-207.02 -25.94,-53.94 -59.52,-102.87 -96.23,-149.87 -27.58,-35.31 -59.34,-66.63 -91.37,-97.73 -37.95,-36.87 -81.94,-65.01 -129.21,-88.29 -9.87,-4.86 -19.77,-9.64 -29.66,-14.44 -7.17,-3.46 -11.27,-1.78 -10.95,6.77 0.2,5.17 0.6,10.33 0.96,15.49 0.55,7.74 2.69,15.74 1.47,23.18 -4.5,27.33 8.86,44.91 26.88,63.92 53.44,56.39 100.04,118.5 142.84,183.4 19.95,30.25 39.75,60.57 57.01,92.46 3.14,5.78 10.81,13.38 3.88,18.8 -7.15,5.58 -12.56,-3.78 -17.01,-8.51 -23.91,-25.46 -48.25,-50.6 -70.7,-77.3 -18.75,-22.3 -39.93,-42.3 -58.01,-65.24 -19.99,-25.37 -41.67,-49.4 -62.69,-73.95 -4.2,-4.92 -8.53,-9.76 -13.15,-14.28 -9.3,-9.08 -12.17,-8.55 -14.87,3.56 -6.33,28.39 -12.35,56.85 -17.95,85.4 -1.22,6.21 -0.31,12.89 -0.08,19.35 1.29,35.68 -0.72,71.17 -6.44,106.39 -1.07,6.52 0.19,16.7 -8.75,17.29 -8.92,0.6 -9.21,-9.68 -11.06,-15.98 z m -98.74,-650.59 c -58.04,-152.32 -132.18,-296.32 -223.24,-431.54 -32.52,-48.29 -68.43,-93.98 -105.96,-138.53 -39.73,-47.13 -84.62,-89.01 -128.38,-132.1 -0.92,-0.91 -1.85,-1.82 -2.81,-2.68 -19.44,-17.61 -25.14,-16.66 -37.26,6.54 -10.99,21.04 -18.43,42.63 -12.59,67.03 5.66,23.64 18.43,41.02 41.29,50.25 18,7.27 36.08,14.31 53.21,23.51 35.95,19.3 46.87,40.58 32.2,77.99 -15.99,40.8 -3.53,70.38 27.65,95.72 19.55,15.89 39.82,30.9 59.79,46.29 34.48,26.58 65.24,56.93 91.7,91.5 36.36,47.51 55.54,101.77 62.22,160.8 0.87,7.71 1.76,15.43 2.24,23.17 3.41,55.33 -18.26,99.37 -61.05,133.45 -20.64,16.44 -21.47,19.3 0.68,34.24 66.6,44.93 121.06,103.11 174.83,161.61 38.87,42.29 74.65,87.6 102.58,138.37 2.41,4.37 5.68,8.27 8.55,12.38 1.52,-0.52 3.05,-1.04 4.56,-1.56 -1.14,-19.14 -1.92,-38.32 -3.51,-57.43 -10.24,-124.16 -42.51,-243.03 -86.7,-359.01 z m 69.94,-91.56 c 10.47,-14.78 15.09,-31.24 13.68,-49.34 -1.43,-18.29 -6.81,-35.55 -14.91,-51.82 -29.41,-59.03 -68.53,-110.65 -118.28,-154.12 -12.41,-10.84 -24.37,-22.18 -36.54,-33.3 -0.51,0.41 -1.02,0.82 -1.53,1.23 12.9,22.91 26.13,45.64 38.63,68.76 36.27,67.04 70.62,135.01 98.84,205.92 1.43,3.59 2.81,7.23 4.49,10.72 5.36,11.2 8.74,11.64 15.62,1.95 z m -888.1,-531.19 c -23.33,-33.92 -28.55,-68.48 -6.27,-105.3 9.22,-15.22 8.25,-16.43 -7.03,-25.71 -20.09,-12.18 -41.92,-20.32 -64.48,-26.37 -46.66,-12.53 -87.61,-36.06 -122.6,-68.45 -27.29,-25.26 -47.28,-56.58 -56.39,-93.56 -12.26,-49.74 10.54,-108.28 54.11,-140.62 17.16,-12.73 35.92,-22.41 59.02,-31.44 -71.16,-68.08 -138.26,-136.58 -197.1,-211.31 -6.45,1.29 -7.81,5.29 -9.7,8.49 -17.33,29.44 -44.32,42.45 -77.16,44.88 -38.39,2.82 -74.43,-7.08 -109.49,-21.54 -16.15,-6.67 -32.2,-13.59 -48.5,-19.87 -15.83,-6.09 -32.23,-9.48 -49.37,-8.63 -29.54,1.47 -46.17,19.22 -45.28,49 0.45,14.99 3.64,29.55 9.06,43.53 7.48,19.3 15.3,38.47 22.89,57.74 12.99,32.97 20.35,66.67 15.36,102.46 -4.12,29.48 -14.5,56.23 -31.58,80.51 -9.19,13.06 -9.12,15.44 3.71,24.78 48.11,35.03 96.28,69.98 144.7,104.58 117.63,84.05 242.73,155.86 369.16,225.56 77.63,42.8 154.27,87.37 227.97,136.81 4.68,3.14 9.75,5.72 17.34,10.13 -1.97,-32.06 -14.94,-54.1 -35.99,-72.19 -22.56,-19.39 -45.28,-38.63 -62.38,-63.48 z M 1706.58,2110.75 c -2.17,1.37 -4.34,2.93 -6,4.85 -24.34,28.12 -41.17,72.64 -11.48,113.41 18.46,25.35 42.04,43.31 70.98,54.54 5.13,2 10.66,5.06 16.4,1.47 2.51,-4.31 -0.17,-7.78 -1.78,-11.04 -23.9,-48.29 -39.18,-99.61 -53.24,-151.34 -0.68,-2.49 -1.27,-5.01 -1.88,-7.52 -2.04,-8.29 -7,-8.15 -13,-4.37 z m 74.56,64.89 c 21.07,68.3 56.38,129 97.57,186.68 44.11,61.79 93.48,119.2 148.92,170.97 53.07,49.55 113.33,87.91 183.99,108.14 31.15,8.91 62.93,8.59 94.42,4.71 27.45,-3.39 49.02,3.75 68,24.03 16.42,17.54 31.62,35.87 45.78,55.2 12.23,16.69 24.08,33.74 37.41,49.53 27.59,32.68 63.45,52.83 104.23,64.18 73.89,20.56 149.55,31.18 225.89,35.66 65.25,3.81 130.66,4.7 195.1,17.3 2.39,0.46 5.07,1.31 8.18,-1.92 -15.97,-14.89 -34.23,-26.71 -51.91,-39.14 -94.84,-66.69 -194.54,-125.6 -295.1,-183.12 -115.68,-66.19 -231.85,-131.64 -341.83,-207.21 -82.13,-56.41 -162.39,-115.38 -238.72,-179.54 -33.18,-27.88 -66.15,-56.01 -96.29,-87.18 -85,-87.91 -158.29,-184.46 -214.84,-293.26 -3.15,-6.07 -5.09,-13.26 -12.03,-17.82 -6.02,5.16 -4.52,12.01 -4.89,18.03 -2.33,38.43 2.73,76.37 9.97,113.85 10.41,53.97 19.88,108.19 36.15,160.91 z m 393.8,-733.65 c -47.3,-97.28 -100.39,-191.34 -164.95,-278.45 -15,-20.24 -31.59,-39.3 -47.45,-58.91 -2.88,-3.57 -6.17,-6.62 -10.49,-8.38 -29.97,-12.21 -59.74,-25.04 -92.39,-28.51 -41.85,-4.45 -79.44,7 -113.56,30.84 -16.62,11.63 -24.07,28.25 -24.84,48.17 -1.11,28.72 11.12,52.49 27.15,75.14 21.99,31.09 52.06,53.79 80.12,78.61 3.38,2.99 7.36,5.43 10.28,8.8 11.77,13.59 9.12,28.17 -6.73,36.96 -5.64,3.12 -11.88,5.13 -17.68,7.99 -38.37,18.95 -52.06,50.75 -40.05,91.8 8.75,29.89 25.57,55.01 45.69,78.1 16.59,19.03 34.71,36.63 55.39,55.75 21.43,21.97 47.58,43.45 66.89,71.43 37.79,54.73 44.72,113.28 21.08,175.21 -7.83,20.52 -16.82,40.62 -27.07,60.15 -10.91,20.8 -24.09,39.68 -41.01,56.13 -9.24,8.98 -16.71,19.73 -25.51,29.18 -7.6,8.17 -7.3,15.51 -0.5,23.99 20.22,25.21 38.91,51.76 60.41,75.82 30.15,33.73 59.24,68.59 92.86,99.04 20.11,18.2 40.84,35.77 61.95,52.8 10.99,8.87 13.29,8.08 20.77,-4.52 22.45,-37.8 31.31,-77.88 17.81,-120.93 -7.75,-24.68 -16.6,-49.03 -24.5,-73.68 -6.74,-21.02 -11.43,-42.47 -10.51,-64.81 1.83,-44.34 34.2,-78 78.56,-81.31 16.25,-1.21 32.24,0.24 47.95,5.14 22.91,7.12 44.92,16.52 67.1,25.51 32.14,13.03 65.54,19.81 100.34,19.26 22.77,-0.35 38.86,-10.6 50.5,-30.3 7.35,-12.44 7,-22.46 -1.46,-33.7 -15.55,-20.68 -30.39,-41.88 -45.72,-62.71 -82.79,-112.48 -149.5,-234.29 -210.43,-359.61 z m 251.51,289.7 c 56.59,32.68 112.72,66.19 169.76,98.07 54.13,30.24 111.97,50.46 173.76,58.55 18.05,2.36 36.17,1.92 54.29,1.95 53.63,0.08 84.66,-22.72 93.5,-89.64 3.56,-26.82 -2.92,-52.83 -12.72,-77.82 -18.85,-48.05 -46.25,-90.84 -79.13,-130.53 -21.53,-25.98 -44.99,-49.98 -68.9,-73.67 -52.47,-51.94 -113.39,-91.98 -178.47,-126 -44.19,-23.11 -88.97,-45.06 -137.91,-56.64 -48.97,-11.59 -98.45,-15.44 -148.38,-7.72 -24.59,3.81 -47.9,11.32 -66.5,29.18 -11.69,11.22 -12.15,13.69 -5.19,28.68 1.64,3.53 3.83,6.84 5.07,10.48 3.85,11.28 12.22,15.02 23.39,17.08 111.56,20.57 221.03,49.26 328.42,85.79 18.37,6.25 36.39,13.53 54.49,20.51 4.19,1.61 8.56,3.41 11.99,6.18 4,3.23 2.73,7.18 -1.81,8.87 -5.63,2.08 -11.54,0.49 -17.3,-0.25 -46.88,-6.01 -93.36,-14.55 -139.72,-23.62 -66.69,-13.04 -133.15,-27.24 -199.75,-40.73 -6.74,-1.37 -13.52,-4.64 -23.39,-0.79 7.63,15.26 14.63,29.06 21.45,42.95 3.69,7.51 10.3,11.23 17.45,14.6 69.08,32.52 138.18,65 207.15,97.76 58.47,27.77 116.45,56.51 171.45,90.82 12.61,7.87 24.82,16.42 36.96,25.02 4.5,3.19 12.02,6.99 9.25,12.9 -3.24,6.92 -10.36,1.8 -15.24,-0.17 -27.59,-11.17 -55.07,-22.61 -82.49,-34.18 -95.42,-40.28 -188.96,-84.68 -282.68,-128.69 -6.27,-2.93 -12.01,-7.82 -19.84,-7.06 -2.77,5.92 1.48,10.05 3.82,14.17 20.45,36.04 42.85,70.86 66.26,105.04 8.14,11.89 18.35,21.62 30.96,28.91 z M 872.602,1531.72 c -13.778,0.24 -15.84,3.4 -11.782,16.8 13.321,44.02 29.524,86.94 48.539,128.85 50.637,111.59 109.361,218.68 178.641,319.78 51.19,74.7 105.33,147.24 163.26,216.9 15.3,18.39 30.51,36.85 45.07,54.45 12.01,12.72 15.05,12.97 23.33,-1.77 17.11,-30.47 34.23,-61.23 41.96,-95.66 18.36,-81.74 -7.66,-149.04 -69.36,-203.57 -20.38,-18.02 -40.33,-36.45 -59.04,-56.15 -34.68,-36.53 -48.73,-79.94 -42.42,-130.03 2.52,-19.98 7.13,-39.42 13.01,-58.64 3.97,-12.98 7.74,-26.06 10.79,-39.27 5.36,-23.24 -1.28,-43.31 -17.09,-60.88 -19.24,-21.38 -44.03,-33.61 -70.36,-43.23 -71.61,-26.16 -145.646,-40.74 -221.63,-45.75 -10.973,-0.72 -21.961,-2.04 -32.918,-1.83 z m 227.508,1105.43 c -15.7,-60.35 -25.09,-121.62 -25.03,-184.16 0.05,-61.45 21.74,-115.15 58.79,-163.08 11.05,-14.3 24.09,-26.98 40.32,-35.95 18.48,-10.21 18.33,-10.47 4.78,-27.48 -0.81,-1.01 -1.68,-1.97 -2.51,-2.96 -51.86,-62.93 -100.63,-128.24 -147.17,-195.15 -70.767,-101.73 -131.446,-209.27 -182.134,-322.35 -41.476,-92.55 -73.558,-188.19 -86.195,-289.16 -8.758,-70.01 -7.273,-140.8 -10.684,-211.22 -0.867,-18.02 0.446,-36.25 1.946,-54.28 9.379,-112.71 55.968,-211.77 114.343,-306.079 13.516,-21.82 31.301,-41.152 48.122,-60.781 34.636,-40.41 75.41,-72.59 126.282,-90.59 10.36,-3.672 20.79,-7.398 30.65,-12.211 47.09,-23.019 97.46,-30.597 149.01,-30.289 97.17,0.551 191.9,15.231 283.2,50.34 83.49,32.121 166.36,65.219 240.17,116.988 61.02,42.801 117.25,91.391 171.69,142.192 79.41,74.1 149.92,155.4 206.23,248.69 19.73,32.68 39.49,65.33 58.25,98.58 6.45,11.46 8.52,12.06 17.22,4.22 31.26,-28.15 68.78,-39.88 109.72,-43.73 74.48,-6.99 145.8,5.91 214.53,34.09 123.16,50.51 232.07,122.14 323.32,219.77 32.35,34.62 62.06,71.18 85.47,112.53 22.79,40.23 41.4,82.04 46.87,128.62 6.11,51.89 -9.77,97.36 -41.95,137.22 -23.99,29.72 -57.69,40.3 -94.6,42.13 -72.09,3.57 -139.66,-15.46 -205.85,-41.48 -48.44,-19.04 -92.25,-46.78 -137.41,-72.03 -4.12,-2.3 -7.83,-5.86 -14.57,-5.76 42.97,60.57 91.7,114.19 140.37,167.72 61.57,67.71 131.89,125.81 204.96,180.66 56.39,42.32 112.41,85.12 168.74,127.51 54.28,40.85 107.41,83.11 160.28,125.76 56.91,45.91 111.52,94.2 162.48,146.8 53.72,55.46 102.72,114.59 147.31,177.51 3.8,5.36 8.03,9.91 13.66,13.46 51.55,32.5 99.4,69.74 145.69,109.43 48.38,41.48 86.83,90.29 117.75,145.44 11.44,20.39 19.77,42.13 22.96,65.6 6.43,47.42 -10.73,84.91 -47.84,113.87 -14.73,11.5 -15.06,11.2 -9.58,28.48 13.69,43.18 26.73,86.55 37.02,130.71 6.46,27.75 12.48,55.59 16.36,83.82 1.54,11.3 6.23,17.3 18.11,18.49 12.26,1.23 23.77,5.99 35.33,10.24 66.74,24.47 124.01,63.86 175.45,112.1 32.09,30.08 62.85,61.45 91.29,95.21 32.99,39.18 64.59,79.19 90.22,123.64 50.19,87.04 77.25,180.56 76.5,281.31 -0.4,54.8 -12.28,107.01 -46.1,151.6 -37.93,50 -87.68,75.45 -151.76,67.15 -20.64,-2.68 -40.69,-8.03 -59.69,-16.58 -53.89,-24.25 -99.61,-59.75 -139.86,-102.6 -20.76,-22.09 -42.37,-43.41 -61.94,-69.35 -0.62,21.7 -0.68,39.82 -1.74,57.88 -3.67,61.93 -32.51,109.97 -83.9,143.41 -65.23,42.44 -135.1,45.54 -206.03,16.48 -67.46,-27.63 -117.97,-76.03 -157.41,-136.46 -37.83,-57.99 -57.1,-122.73 -69.12,-190.24 -23.96,-134.57 -2.83,-260.21 72.89,-375.28 26.03,-39.55 54.18,-77.19 92.22,-106.61 15.41,-11.91 30.91,-23.32 47.83,-32.94 10.06,-5.71 10.28,-8.31 2.68,-15.69 -10.22,-9.91 -20.76,-19.49 -30.98,-29.39 -5.75,-5.57 -11.58,-7.39 -19.14,-3.24 -17.6,9.65 -36.97,11.24 -56.51,11.33 -71.85,0.32 -127.96,-33.44 -174.85,-83.98 -36.06,-38.89 -68.33,-81.14 -97.36,-125.66 -6.61,-10.14 -14.82,-17.48 -25.82,-22.52 -63.04,-28.84 -127.29,-54.59 -193.34,-75.61 -79.54,-25.32 -159.06,-50.78 -239.04,-74.66 -86.21,-25.73 -172.2,-52.07 -257.92,-79.32 -62.9,-20 -126.28,-38.91 -186.66,-65.85 -78.58,-35.07 -156.31,-72.07 -234.83,-107.29 -138.08,-61.93 -268,-137.81 -390.76,-226.14 -18.09,-13.03 -36.18,-26.05 -55.19,-39.73 -0.49,7.04 2.97,10.35 5.15,14.18 14.68,25.89 29.64,51.63 44.07,77.66 34,61.34 57.21,126.08 59.72,196.94 1.38,38.91 -4.32,76.31 -27.89,108.86 -19.98,27.6 -48.31,44.47 -78.2,58.97 -26.93,13.07 -55.35,17.12 -85.07,13.1 -41.98,-5.69 -79.71,-22.13 -114.25,-45.87 -36.97,-25.41 -68.67,-56.46 -97.78,-90.78 -61.68,-72.71 -107.23,-153.65 -131.29,-246.16"
         style="fill:#000000;fill-opacity:1;fill-rule:nonzero;stroke:none"
         transform="matrix(0.13333333,0,0,-0.13333333,0,666.66667)" />
      <path
         id="path18"
         d="m 1421.38,767.16 c 41.11,0.711 78.44,14.121 108.63,43.481 14.7,14.3 20.1,31.66 12.76,51.199 -7.52,20.039 -24.46,28.23 -44.38,28.289 -38.03,0.101 -72.21,-11.547 -100.66,-37.68 -5.46,-5.597 -10.63,-11.308 -14.39,-18.187 -17.6,-32.282 1.46,-67.742 38.04,-67.102"
         style="fill:#000000;fill-opacity:1;fill-rule:nonzero;stroke:none"
         transform="matrix(0.13333333,0,0,-0.13333333,0,666.66667)" />
      <path
         id="path19"
         d="m 868.176,1291.18 c -3.27,-5.53 -6.305,-11.39 -8.238,-17.47 -7.852,-24.73 -13.083,-49.95 -12.903,-76.07 0.055,-7.8 0.86,-15.47 3.332,-22.9 7.321,-22.04 28.125,-33.16 50.668,-27.08 10.922,2.94 19.988,8.86 28.035,17.09 27.254,32.58 37.082,69.82 29.012,111.74 -0.605,3.13 -1.699,6.3 -3.219,9.11 -9.312,17.15 -21.445,31.28 -42.629,32.13 -20.07,0.81 -34.207,-9.85 -44.058,-26.55"
         style="fill:#000000;fill-opacity:1;fill-rule:nonzero;stroke:none"
         transform="matrix(0.13333333,0,0,-0.13333333,0,666.66667)" />
      <path
         id="path20"
         d="m 1853.8,2178.95 c 21.6,35.45 46.49,68.65 73.73,99.74 56.6,64.6 119.26,122.1 197.18,160.99 59.04,29.47 117.61,59.88 181.06,79.21 12.36,3.76 21.61,10.99 28.19,22.2 14.53,24.76 34.01,45.83 54.2,65.67 51.07,50.19 108.85,91.25 173.52,122.65 29.07,14.12 57.36,29.86 86.92,43.06 3.53,1.58 7.32,3.83 5.87,8.59 -1.03,3.44 -4.62,4.26 -7.9,4.59 -11.66,1.17 -23.31,0.83 -34.79,-1.38 -19.09,-3.66 -37.77,-8.71 -55.88,-15.97 -101.97,-40.82 -185.89,-106.16 -256.9,-188.97 -4.93,-5.77 -10.4,-9.35 -17.46,-11.29 -60.41,-16.64 -115.49,-45.3 -169.66,-75.87 -55.5,-31.33 -107.5,-67.46 -149.32,-116.24 -39.66,-46.25 -74.74,-95.89 -104.91,-148.88 -11.54,-20.26 -21.18,-41.5 -27.86,-63.93 -2.31,-7.79 -5.68,-15.7 -2.59,-25.46 8.25,2.05 9.18,7.64 11.08,12.23 4.23,10.21 9.8,19.64 15.52,29.06"
         style="fill:#000000;fill-opacity:1;fill-rule:nonzero;stroke:none"
         transform="matrix(0.13333333,0,0,-0.13333333,0,666.66667)" />
    </g>
  </g>
</svg>
